<?xml version="1.0" encoding="UTF-8" standalone="no"?>
<!DOCTYPE svg PUBLIC "-//W3C//DTD SVG 1.1//EN"
 "http://www.w3.org/Graphics/SVG/1.1/DTD/svg11.dtd">
<!-- Generated by graphviz version 2.28.0 (20121028.1614)
 -->
<!-- Title: controllers_diagram Pages: 1 -->
<svg width="1117pt" height="1115pt"
 viewBox="0.00 0.00 1117.24 1115.34" xmlns="http://www.w3.org/2000/svg" xmlns:xlink="http://www.w3.org/1999/xlink">
<g id="graph1" class="graph" transform="scale(1 1) rotate(0) translate(4 1111.34)">
<title>controllers_diagram</title>
<polygon fill="white" stroke="white" points="-4,5 -4,-1111.34 1114.24,-1111.34 1114.24,5 -4,5"/>
<!-- _diagram_info -->
<g id="node1" class="node"><title>_diagram_info</title>
<text text-anchor="start" x="909.864" y="-1053" font-family="Times,serif" font-size="13.00">Controllers diagram</text>
<text text-anchor="start" x="909.864" y="-1037.4" font-family="Times,serif" font-size="13.00">Date: Oct 28 2012 &#45; 19:42</text>
<text text-anchor="start" x="909.864" y="-1021.8" font-family="Times,serif" font-size="13.00">Migration version: 20121026094813</text>
<text text-anchor="start" x="909.864" y="-1006.2" font-family="Times,serif" font-size="13.00">Generated by RailRoady 1.1.0</text>
<text text-anchor="start" x="909.864" y="-990.6" font-family="Times,serif" font-size="13.00">http://railroady.prestonlee.com</text>
</g>
<!-- ApplicationController -->
<g id="node2" class="node"><title>ApplicationController</title>
<polyline fill="none" stroke="black" points="399.996,-513.481 578.63,-513.481 "/>
<path fill="none" stroke="black" d="M578.63,-513.481C584.63,-513.481 590.63,-519.481 590.63,-525.481"/>
<polyline fill="none" stroke="black" points="590.63,-525.481 590.63,-599.881 "/>
<path fill="none" stroke="black" d="M590.63,-599.881C590.63,-605.881 584.63,-611.881 578.63,-611.881"/>
<polyline fill="none" stroke="black" points="578.63,-611.881 399.996,-611.881 "/>
<path fill="none" stroke="black" d="M399.996,-611.881C393.996,-611.881 387.996,-605.881 387.996,-599.881"/>
<polyline fill="none" stroke="black" points="387.996,-599.881 387.996,-525.481 "/>
<path fill="none" stroke="black" d="M387.996,-525.481C387.996,-519.481 393.996,-513.481 399.996,-513.481"/>
<text text-anchor="middle" x="489.313" y="-593.881" font-family="Times,serif" font-size="14.00">ApplicationController</text>
<polyline fill="none" stroke="black" points="387.996,-587.081 590.63,-587.081 "/>
<text text-anchor="start" x="395.996" y="-569.081" font-family="Times,serif" font-size="14.00">_one_time_conditions_valid_14?</text>
<polyline fill="none" stroke="black" points="387.996,-562.281 590.63,-562.281 "/>
<polyline fill="none" stroke="black" points="387.996,-538.281 590.63,-538.281 "/>
<text text-anchor="start" x="395.996" y="-520.281" font-family="Times,serif" font-size="14.00">_layout</text>
</g>
<!-- CoursesController -->
<g id="node3" class="node"><title>CoursesController</title>
<polyline fill="none" stroke="black" points="786.277,-625.28 964.912,-625.28 "/>
<path fill="none" stroke="black" d="M964.912,-625.28C970.912,-625.28 976.912,-631.28 976.912,-637.28"/>
<polyline fill="none" stroke="black" points="976.912,-637.28 976.912,-862.88 "/>
<path fill="none" stroke="black" d="M976.912,-862.88C976.912,-868.88 970.912,-874.88 964.912,-874.88"/>
<polyline fill="none" stroke="black" points="964.912,-874.88 786.277,-874.88 "/>
<path fill="none" stroke="black" d="M786.277,-874.88C780.277,-874.88 774.277,-868.88 774.277,-862.88"/>
<polyline fill="none" stroke="black" points="774.277,-862.88 774.277,-637.28 "/>
<path fill="none" stroke="black" d="M774.277,-637.28C774.277,-631.28 780.277,-625.28 786.277,-625.28"/>
<text text-anchor="middle" x="875.594" y="-856.88" font-family="Times,serif" font-size="14.00">CoursesController</text>
<polyline fill="none" stroke="black" points="774.277,-850.08 976.912,-850.08 "/>
<text text-anchor="start" x="782.277" y="-832.08" font-family="Times,serif" font-size="14.00">_one_time_conditions_valid_36?</text>
<text text-anchor="start" x="782.277" y="-815.28" font-family="Times,serif" font-size="14.00">create</text>
<text text-anchor="start" x="782.277" y="-798.48" font-family="Times,serif" font-size="14.00">destroy</text>
<text text-anchor="start" x="782.277" y="-781.68" font-family="Times,serif" font-size="14.00">edit</text>
<text text-anchor="start" x="782.277" y="-764.88" font-family="Times,serif" font-size="14.00">index</text>
<text text-anchor="start" x="782.277" y="-748.08" font-family="Times,serif" font-size="14.00">json_dump</text>
<text text-anchor="start" x="782.277" y="-731.28" font-family="Times,serif" font-size="14.00">new</text>
<text text-anchor="start" x="782.277" y="-714.48" font-family="Times,serif" font-size="14.00">show</text>
<text text-anchor="start" x="782.277" y="-697.68" font-family="Times,serif" font-size="14.00">update</text>
<polyline fill="none" stroke="black" points="774.277,-690.88 976.912,-690.88 "/>
<polyline fill="none" stroke="black" points="774.277,-666.88 976.912,-666.88 "/>
<text text-anchor="start" x="782.277" y="-648.88" font-family="Times,serif" font-size="14.00">_layout</text>
<text text-anchor="start" x="782.277" y="-632.08" font-family="Times,serif" font-size="14.00">get_lookups</text>
</g>
<!-- ApplicationController&#45;&gt;CoursesController -->
<g id="edge2" class="edge"><title>ApplicationController&#45;&gt;CoursesController</title>
<path fill="none" stroke="black" d="M590.804,-611.918C647.358,-639.354 717.559,-673.412 774.111,-700.847"/>
</g>
<!-- LayoutFieldsController -->
<g id="node4" class="node"><title>LayoutFieldsController</title>
<polyline fill="none" stroke="black" points="366.402,-0.5 545.037,-0.5 "/>
<path fill="none" stroke="black" d="M545.037,-0.5C551.037,-0.5 557.037,-6.5 557.037,-12.5"/>
<polyline fill="none" stroke="black" points="557.037,-12.5 557.037,-254.9 "/>
<path fill="none" stroke="black" d="M557.037,-254.9C557.037,-260.9 551.037,-266.9 545.037,-266.9"/>
<polyline fill="none" stroke="black" points="545.037,-266.9 366.402,-266.9 "/>
<path fill="none" stroke="black" d="M366.402,-266.9C360.402,-266.9 354.402,-260.9 354.402,-254.9"/>
<polyline fill="none" stroke="black" points="354.402,-254.9 354.402,-12.5 "/>
<path fill="none" stroke="black" d="M354.402,-12.5C354.402,-6.5 360.402,-0.5 366.402,-0.5"/>
<text text-anchor="middle" x="455.719" y="-248.9" font-family="Times,serif" font-size="14.00">LayoutFieldsController</text>
<polyline fill="none" stroke="black" points="354.402,-242.1 557.037,-242.1 "/>
<text text-anchor="start" x="362.402" y="-224.1" font-family="Times,serif" font-size="14.00">_one_time_conditions_valid_42?</text>
<text text-anchor="start" x="362.402" y="-207.3" font-family="Times,serif" font-size="14.00">_one_time_conditions_valid_44?</text>
<text text-anchor="start" x="362.402" y="-190.5" font-family="Times,serif" font-size="14.00">create</text>
<text text-anchor="start" x="362.402" y="-173.7" font-family="Times,serif" font-size="14.00">destroy</text>
<text text-anchor="start" x="362.402" y="-156.9" font-family="Times,serif" font-size="14.00">edit</text>
<text text-anchor="start" x="362.402" y="-140.1" font-family="Times,serif" font-size="14.00">index</text>
<text text-anchor="start" x="362.402" y="-123.3" font-family="Times,serif" font-size="14.00">new</text>
<text text-anchor="start" x="362.402" y="-106.5" font-family="Times,serif" font-size="14.00">show</text>
<text text-anchor="start" x="362.402" y="-89.7" font-family="Times,serif" font-size="14.00">update</text>
<polyline fill="none" stroke="black" points="354.402,-82.9 557.037,-82.9 "/>
<polyline fill="none" stroke="black" points="354.402,-58.9 557.037,-58.9 "/>
<text text-anchor="start" x="362.402" y="-40.9" font-family="Times,serif" font-size="14.00">_layout</text>
<text text-anchor="start" x="362.402" y="-24.1" font-family="Times,serif" font-size="14.00">find_layout_field</text>
<text text-anchor="start" x="362.402" y="-7.3" font-family="Times,serif" font-size="14.00">find_lesson_layout</text>
</g>
<!-- ApplicationController&#45;&gt;LayoutFieldsController -->
<g id="edge4" class="edge"><title>ApplicationController&#45;&gt;LayoutFieldsController</title>
<path fill="none" stroke="black" d="M485.459,-513.472C480.789,-453.831 472.731,-350.93 466.179,-267.273"/>
</g>
<!-- LayoutTablesController -->
<g id="node5" class="node"><title>LayoutTablesController</title>
<polyline fill="none" stroke="black" points="44.4881,-673.952 223.123,-673.952 "/>
<path fill="none" stroke="black" d="M223.123,-673.952C229.123,-673.952 235.123,-679.952 235.123,-685.952"/>
<polyline fill="none" stroke="black" points="235.123,-685.952 235.123,-928.352 "/>
<path fill="none" stroke="black" d="M235.123,-928.352C235.123,-934.352 229.123,-940.352 223.123,-940.352"/>
<polyline fill="none" stroke="black" points="223.123,-940.352 44.4881,-940.352 "/>
<path fill="none" stroke="black" d="M44.4881,-940.352C38.4881,-940.352 32.4881,-934.352 32.4881,-928.352"/>
<polyline fill="none" stroke="black" points="32.4881,-928.352 32.4881,-685.952 "/>
<path fill="none" stroke="black" d="M32.4881,-685.952C32.4881,-679.952 38.4881,-673.952 44.4881,-673.952"/>
<text text-anchor="middle" x="133.805" y="-922.352" font-family="Times,serif" font-size="14.00">LayoutTablesController</text>
<polyline fill="none" stroke="black" points="32.4881,-915.552 235.123,-915.552 "/>
<text text-anchor="start" x="40.4881" y="-897.552" font-family="Times,serif" font-size="14.00">_one_time_conditions_valid_50?</text>
<text text-anchor="start" x="40.4881" y="-880.752" font-family="Times,serif" font-size="14.00">_one_time_conditions_valid_52?</text>
<text text-anchor="start" x="40.4881" y="-863.952" font-family="Times,serif" font-size="14.00">create</text>
<text text-anchor="start" x="40.4881" y="-847.152" font-family="Times,serif" font-size="14.00">destroy</text>
<text text-anchor="start" x="40.4881" y="-830.352" font-family="Times,serif" font-size="14.00">edit</text>
<text text-anchor="start" x="40.4881" y="-813.552" font-family="Times,serif" font-size="14.00">index</text>
<text text-anchor="start" x="40.4881" y="-796.752" font-family="Times,serif" font-size="14.00">new</text>
<text text-anchor="start" x="40.4881" y="-779.952" font-family="Times,serif" font-size="14.00">show</text>
<text text-anchor="start" x="40.4881" y="-763.152" font-family="Times,serif" font-size="14.00">update</text>
<polyline fill="none" stroke="black" points="32.4881,-756.352 235.123,-756.352 "/>
<polyline fill="none" stroke="black" points="32.4881,-732.352 235.123,-732.352 "/>
<text text-anchor="start" x="40.4881" y="-714.352" font-family="Times,serif" font-size="14.00">_layout</text>
<text text-anchor="start" x="40.4881" y="-697.552" font-family="Times,serif" font-size="14.00">find_layout_table</text>
<text text-anchor="start" x="40.4881" y="-680.752" font-family="Times,serif" font-size="14.00">find_lesson_layout</text>
</g>
<!-- ApplicationController&#45;&gt;LayoutTablesController -->
<g id="edge6" class="edge"><title>ApplicationController&#45;&gt;LayoutTablesController</title>
<path fill="none" stroke="black" d="M417.371,-612.154C365.025,-648.15 293.43,-697.383 235.278,-737.372"/>
</g>
<!-- LessonLayoutsController -->
<g id="node6" class="node"><title>LessonLayoutsController</title>
<polyline fill="none" stroke="black" points="575.642,-823.474 754.277,-823.474 "/>
<path fill="none" stroke="black" d="M754.277,-823.474C760.277,-823.474 766.277,-829.474 766.277,-835.474"/>
<polyline fill="none" stroke="black" points="766.277,-835.474 766.277,-1077.87 "/>
<path fill="none" stroke="black" d="M766.277,-1077.87C766.277,-1083.87 760.277,-1089.87 754.277,-1089.87"/>
<polyline fill="none" stroke="black" points="754.277,-1089.87 575.642,-1089.87 "/>
<path fill="none" stroke="black" d="M575.642,-1089.87C569.642,-1089.87 563.642,-1083.87 563.642,-1077.87"/>
<polyline fill="none" stroke="black" points="563.642,-1077.87 563.642,-835.474 "/>
<path fill="none" stroke="black" d="M563.642,-835.474C563.642,-829.474 569.642,-823.474 575.642,-823.474"/>
<text text-anchor="middle" x="664.96" y="-1071.87" font-family="Times,serif" font-size="14.00">LessonLayoutsController</text>
<polyline fill="none" stroke="black" points="563.642,-1065.07 766.277,-1065.07 "/>
<text text-anchor="start" x="571.642" y="-1047.07" font-family="Times,serif" font-size="14.00">_one_time_conditions_valid_86?</text>
<text text-anchor="start" x="571.642" y="-1030.27" font-family="Times,serif" font-size="14.00">_one_time_conditions_valid_88?</text>
<text text-anchor="start" x="571.642" y="-1013.47" font-family="Times,serif" font-size="14.00">_one_time_conditions_valid_92?</text>
<text text-anchor="start" x="571.642" y="-996.674" font-family="Times,serif" font-size="14.00">create</text>
<text text-anchor="start" x="571.642" y="-979.874" font-family="Times,serif" font-size="14.00">destroy</text>
<text text-anchor="start" x="571.642" y="-963.074" font-family="Times,serif" font-size="14.00">new</text>
<text text-anchor="start" x="571.642" y="-946.274" font-family="Times,serif" font-size="14.00">show</text>
<text text-anchor="start" x="571.642" y="-929.474" font-family="Times,serif" font-size="14.00">update</text>
<polyline fill="none" stroke="black" points="563.642,-922.674 766.277,-922.674 "/>
<polyline fill="none" stroke="black" points="563.642,-898.674 766.277,-898.674 "/>
<text text-anchor="start" x="571.642" y="-880.674" font-family="Times,serif" font-size="14.00">_layout</text>
<text text-anchor="start" x="571.642" y="-863.874" font-family="Times,serif" font-size="14.00">find_lesson</text>
<text text-anchor="start" x="571.642" y="-847.074" font-family="Times,serif" font-size="14.00">find_lesson_layout</text>
<text text-anchor="start" x="571.642" y="-830.274" font-family="Times,serif" font-size="14.00">get_lookups</text>
</g>
<!-- ApplicationController&#45;&gt;LessonLayoutsController -->
<g id="edge8" class="edge"><title>ApplicationController&#45;&gt;LessonLayoutsController</title>
<path fill="none" stroke="black" d="M511.381,-612.182C534.876,-664.884 573.063,-750.542 605.48,-823.255"/>
</g>
<!-- LessonsController -->
<g id="node7" class="node"><title>LessonsController</title>
<polyline fill="none" stroke="black" points="280.53,-840.44 465.652,-840.44 "/>
<path fill="none" stroke="black" d="M465.652,-840.44C471.652,-840.44 477.652,-846.44 477.652,-852.44"/>
<polyline fill="none" stroke="black" points="477.652,-852.44 477.652,-1094.84 "/>
<path fill="none" stroke="black" d="M477.652,-1094.84C477.652,-1100.84 471.652,-1106.84 465.652,-1106.84"/>
<polyline fill="none" stroke="black" points="465.652,-1106.84 280.53,-1106.84 "/>
<path fill="none" stroke="black" d="M280.53,-1106.84C274.53,-1106.84 268.53,-1100.84 268.53,-1094.84"/>
<polyline fill="none" stroke="black" points="268.53,-1094.84 268.53,-852.44 "/>
<path fill="none" stroke="black" d="M268.53,-852.44C268.53,-846.44 274.53,-840.44 280.53,-840.44"/>
<text text-anchor="middle" x="373.091" y="-1088.84" font-family="Times,serif" font-size="14.00">LessonsController</text>
<polyline fill="none" stroke="black" points="268.53,-1082.04 477.652,-1082.04 "/>
<text text-anchor="start" x="276.53" y="-1064.04" font-family="Times,serif" font-size="14.00">_one_time_conditions_valid_112?</text>
<text text-anchor="start" x="276.53" y="-1047.24" font-family="Times,serif" font-size="14.00">_one_time_conditions_valid_114?</text>
<text text-anchor="start" x="276.53" y="-1030.44" font-family="Times,serif" font-size="14.00">_one_time_conditions_valid_118?</text>
<text text-anchor="start" x="276.53" y="-1013.64" font-family="Times,serif" font-size="14.00">create</text>
<text text-anchor="start" x="276.53" y="-996.84" font-family="Times,serif" font-size="14.00">destroy</text>
<text text-anchor="start" x="276.53" y="-980.04" font-family="Times,serif" font-size="14.00">new</text>
<text text-anchor="start" x="276.53" y="-963.24" font-family="Times,serif" font-size="14.00">show</text>
<text text-anchor="start" x="276.53" y="-946.44" font-family="Times,serif" font-size="14.00">update</text>
<polyline fill="none" stroke="black" points="268.53,-939.64 477.652,-939.64 "/>
<polyline fill="none" stroke="black" points="268.53,-915.64 477.652,-915.64 "/>
<text text-anchor="start" x="276.53" y="-897.64" font-family="Times,serif" font-size="14.00">_layout</text>
<text text-anchor="start" x="276.53" y="-880.84" font-family="Times,serif" font-size="14.00">find_lesson</text>
<text text-anchor="start" x="276.53" y="-864.04" font-family="Times,serif" font-size="14.00">find_unit</text>
<text text-anchor="start" x="276.53" y="-847.24" font-family="Times,serif" font-size="14.00">get_lookups</text>
</g>
<!-- ApplicationController&#45;&gt;LessonsController -->
<g id="edge10" class="edge"><title>ApplicationController&#45;&gt;LessonsController</title>
<path fill="none" stroke="black" d="M475.294,-612.252C459.415,-668.398 432.882,-762.218 410.83,-840.193"/>
</g>
<!-- LookupsController -->
<g id="node8" class="node"><title>LookupsController</title>
<polyline fill="none" stroke="black" points="11.8638,-420.882 110.409,-420.882 "/>
<path fill="none" stroke="black" d="M110.409,-420.882C116.409,-420.882 122.409,-426.882 122.409,-432.882"/>
<polyline fill="none" stroke="black" points="122.409,-432.882 122.409,-608.082 "/>
<path fill="none" stroke="black" d="M122.409,-608.082C122.409,-614.082 116.409,-620.082 110.409,-620.082"/>
<polyline fill="none" stroke="black" points="110.409,-620.082 11.8638,-620.082 "/>
<path fill="none" stroke="black" d="M11.8638,-620.082C5.86377,-620.082 -0.13623,-614.082 -0.13623,-608.082"/>
<polyline fill="none" stroke="black" points="-0.13623,-608.082 -0.13623,-432.882 "/>
<path fill="none" stroke="black" d="M-0.13623,-432.882C-0.13623,-426.882 5.86377,-420.882 11.8638,-420.882"/>
<text text-anchor="middle" x="61.1362" y="-602.082" font-family="Times,serif" font-size="14.00">LookupsController</text>
<polyline fill="none" stroke="black" points="-0.13623,-595.282 122.409,-595.282 "/>
<text text-anchor="start" x="7.86377" y="-577.282" font-family="Times,serif" font-size="14.00">create</text>
<text text-anchor="start" x="7.86377" y="-560.482" font-family="Times,serif" font-size="14.00">destroy</text>
<text text-anchor="start" x="7.86377" y="-543.682" font-family="Times,serif" font-size="14.00">edit</text>
<text text-anchor="start" x="7.86377" y="-526.882" font-family="Times,serif" font-size="14.00">index</text>
<text text-anchor="start" x="7.86377" y="-510.082" font-family="Times,serif" font-size="14.00">new</text>
<text text-anchor="start" x="7.86377" y="-493.282" font-family="Times,serif" font-size="14.00">show</text>
<text text-anchor="start" x="7.86377" y="-476.482" font-family="Times,serif" font-size="14.00">update</text>
<polyline fill="none" stroke="black" points="-0.13623,-469.682 122.409,-469.682 "/>
<polyline fill="none" stroke="black" points="-0.13623,-445.682 122.409,-445.682 "/>
<text text-anchor="start" x="7.86377" y="-427.682" font-family="Times,serif" font-size="14.00">_layout</text>
</g>
<!-- ApplicationController&#45;&gt;LookupsController -->
<g id="edge12" class="edge"><title>ApplicationController&#45;&gt;LookupsController</title>
<path fill="none" stroke="black" d="M387.841,-552.681C305.366,-544.552 191.72,-533.352 122.503,-526.53"/>
</g>
<!-- MediaCatagoriesController -->
<g id="node9" class="node"><title>MediaCatagoriesController</title>
<polyline fill="none" stroke="black" points="833.264,-408.568 978.444,-408.568 "/>
<path fill="none" stroke="black" d="M978.444,-408.568C984.444,-408.568 990.444,-414.568 990.444,-420.568"/>
<polyline fill="none" stroke="black" points="990.444,-420.568 990.444,-494.168 "/>
<path fill="none" stroke="black" d="M990.444,-494.168C990.444,-500.168 984.444,-506.168 978.444,-506.168"/>
<polyline fill="none" stroke="black" points="978.444,-506.168 833.264,-506.168 "/>
<path fill="none" stroke="black" d="M833.264,-506.168C827.264,-506.168 821.264,-500.168 821.264,-494.168"/>
<polyline fill="none" stroke="black" points="821.264,-494.168 821.264,-420.568 "/>
<path fill="none" stroke="black" d="M821.264,-420.568C821.264,-414.568 827.264,-408.568 833.264,-408.568"/>
<text text-anchor="middle" x="905.854" y="-488.168" font-family="Times,serif" font-size="14.00">MediaCatagoriesController</text>
<polyline fill="none" stroke="black" points="821.264,-481.368 990.444,-481.368 "/>
<polyline fill="none" stroke="black" points="821.264,-457.368 990.444,-457.368 "/>
<polyline fill="none" stroke="black" points="821.264,-433.368 990.444,-433.368 "/>
<text text-anchor="start" x="829.264" y="-415.368" font-family="Times,serif" font-size="14.00">_layout</text>
</g>
<!-- ApplicationController&#45;&gt;MediaCatagoriesController -->
<g id="edge14" class="edge"><title>ApplicationController&#45;&gt;MediaCatagoriesController</title>
<path fill="none" stroke="black" d="M590.678,-537.053C661.357,-519.184 754.573,-495.616 821.261,-478.756"/>
</g>
<!-- UnitLayoutsController -->
<g id="node10" class="node"><title>UnitLayoutsController</title>
<polyline fill="none" stroke="black" points="96.4143,-123.696 282.049,-123.696 "/>
<path fill="none" stroke="black" d="M282.049,-123.696C288.049,-123.696 294.049,-129.696 294.049,-135.696"/>
<polyline fill="none" stroke="black" points="294.049,-135.696 294.049,-378.096 "/>
<path fill="none" stroke="black" d="M294.049,-378.096C294.049,-384.096 288.049,-390.096 282.049,-390.096"/>
<polyline fill="none" stroke="black" points="282.049,-390.096 96.4143,-390.096 "/>
<path fill="none" stroke="black" d="M96.4143,-390.096C90.4143,-390.096 84.4143,-384.096 84.4143,-378.096"/>
<polyline fill="none" stroke="black" points="84.4143,-378.096 84.4143,-135.696 "/>
<path fill="none" stroke="black" d="M84.4143,-135.696C84.4143,-129.696 90.4143,-123.696 96.4143,-123.696"/>
<text text-anchor="middle" x="189.232" y="-372.096" font-family="Times,serif" font-size="14.00">UnitLayoutsController</text>
<polyline fill="none" stroke="black" points="84.4143,-365.296 294.049,-365.296 "/>
<text text-anchor="start" x="92.4143" y="-347.296" font-family="Times,serif" font-size="14.00">_one_time_conditions_valid_154?</text>
<text text-anchor="start" x="92.4143" y="-330.496" font-family="Times,serif" font-size="14.00">_one_time_conditions_valid_156?</text>
<text text-anchor="start" x="92.4143" y="-313.696" font-family="Times,serif" font-size="14.00">_one_time_conditions_valid_160?</text>
<text text-anchor="start" x="92.4143" y="-296.896" font-family="Times,serif" font-size="14.00">create</text>
<text text-anchor="start" x="92.4143" y="-280.096" font-family="Times,serif" font-size="14.00">destroy</text>
<text text-anchor="start" x="92.4143" y="-263.296" font-family="Times,serif" font-size="14.00">new</text>
<text text-anchor="start" x="92.4143" y="-246.496" font-family="Times,serif" font-size="14.00">show</text>
<text text-anchor="start" x="92.4143" y="-229.696" font-family="Times,serif" font-size="14.00">update</text>
<polyline fill="none" stroke="black" points="84.4143,-222.896 294.049,-222.896 "/>
<polyline fill="none" stroke="black" points="84.4143,-198.896 294.049,-198.896 "/>
<text text-anchor="start" x="92.4143" y="-180.896" font-family="Times,serif" font-size="14.00">_layout</text>
<text text-anchor="start" x="92.4143" y="-164.096" font-family="Times,serif" font-size="14.00">find_unit</text>
<text text-anchor="start" x="92.4143" y="-147.296" font-family="Times,serif" font-size="14.00">find_unit_layout</text>
<text text-anchor="start" x="92.4143" y="-130.496" font-family="Times,serif" font-size="14.00">get_lookups</text>
</g>
<!-- ApplicationController&#45;&gt;UnitLayoutsController -->
<g id="edge16" class="edge"><title>ApplicationController&#45;&gt;UnitLayoutsController</title>
<path fill="none" stroke="black" d="M440.766,-513.212C401.287,-472.982 344.16,-414.769 294.322,-363.984"/>
</g>
<!-- UnitsController -->
<g id="node11" class="node"><title>UnitsController</title>
<polyline fill="none" stroke="black" points="646.978,-80.9038 832.613,-80.9038 "/>
<path fill="none" stroke="black" d="M832.613,-80.9038C838.613,-80.9038 844.613,-86.9038 844.613,-92.9038"/>
<polyline fill="none" stroke="black" points="844.613,-92.9038 844.613,-335.304 "/>
<path fill="none" stroke="black" d="M844.613,-335.304C844.613,-341.304 838.613,-347.304 832.613,-347.304"/>
<polyline fill="none" stroke="black" points="832.613,-347.304 646.978,-347.304 "/>
<path fill="none" stroke="black" d="M646.978,-347.304C640.978,-347.304 634.978,-341.304 634.978,-335.304"/>
<polyline fill="none" stroke="black" points="634.978,-335.304 634.978,-92.9038 "/>
<path fill="none" stroke="black" d="M634.978,-92.9038C634.978,-86.9038 640.978,-80.9038 646.978,-80.9038"/>
<text text-anchor="middle" x="739.796" y="-329.304" font-family="Times,serif" font-size="14.00">UnitsController</text>
<polyline fill="none" stroke="black" points="634.978,-322.504 844.613,-322.504 "/>
<text text-anchor="start" x="642.978" y="-304.504" font-family="Times,serif" font-size="14.00">_one_time_conditions_valid_180?</text>
<text text-anchor="start" x="642.978" y="-287.704" font-family="Times,serif" font-size="14.00">_one_time_conditions_valid_182?</text>
<text text-anchor="start" x="642.978" y="-270.904" font-family="Times,serif" font-size="14.00">_one_time_conditions_valid_186?</text>
<text text-anchor="start" x="642.978" y="-254.104" font-family="Times,serif" font-size="14.00">create</text>
<text text-anchor="start" x="642.978" y="-237.304" font-family="Times,serif" font-size="14.00">destroy</text>
<text text-anchor="start" x="642.978" y="-220.504" font-family="Times,serif" font-size="14.00">new</text>
<text text-anchor="start" x="642.978" y="-203.704" font-family="Times,serif" font-size="14.00">show</text>
<text text-anchor="start" x="642.978" y="-186.904" font-family="Times,serif" font-size="14.00">update</text>
<polyline fill="none" stroke="black" points="634.978,-180.104 844.613,-180.104 "/>
<polyline fill="none" stroke="black" points="634.978,-156.104 844.613,-156.104 "/>
<text text-anchor="start" x="642.978" y="-138.104" font-family="Times,serif" font-size="14.00">_layout</text>
<text text-anchor="start" x="642.978" y="-121.304" font-family="Times,serif" font-size="14.00">find_course</text>
<text text-anchor="start" x="642.978" y="-104.504" font-family="Times,serif" font-size="14.00">find_unit</text>
<text text-anchor="start" x="642.978" y="-87.7038" font-family="Times,serif" font-size="14.00">get_lookups</text>
</g>
<!-- ApplicationController&#45;&gt;UnitsController -->
<g id="edge18" class="edge"><title>ApplicationController&#45;&gt;UnitsController</title>
<path fill="none" stroke="black" d="M524.67,-513.478C555.619,-470.408 602.046,-405.799 643.857,-347.614"/>
</g>
</g>
</svg>
