<?xml version="1.0" encoding="UTF-8" standalone="no"?>
<!DOCTYPE svg PUBLIC "-//W3C//DTD SVG 1.1//EN"
 "http://www.w3.org/Graphics/SVG/1.1/DTD/svg11.dtd">
<!-- Generated by graphviz version 2.28.0 (20121028.1614)
 -->
<!-- Title: controllers_diagram Pages: 1 -->
<svg width="1282pt" height="1318pt"
 viewBox="0.00 0.00 1282.24 1318.44" xmlns="http://www.w3.org/2000/svg" xmlns:xlink="http://www.w3.org/1999/xlink">
<g id="graph1" class="graph" transform="scale(1 1) rotate(0) translate(4 1314.44)">
<title>controllers_diagram</title>
<polygon fill="white" stroke="white" points="-4,5 -4,-1314.44 1279.24,-1314.44 1279.24,5 -4,5"/>
<!-- _diagram_info -->
<g id="node1" class="node"><title>_diagram_info</title>
<text text-anchor="start" x="1074.86" y="-1233" font-family="Times,serif" font-size="13.00">Controllers diagram</text>
<text text-anchor="start" x="1074.86" y="-1217.4" font-family="Times,serif" font-size="13.00">Date: Oct 30 2012 &#45; 14:37</text>
<text text-anchor="start" x="1074.86" y="-1201.8" font-family="Times,serif" font-size="13.00">Migration version: 20121029200128</text>
<text text-anchor="start" x="1074.86" y="-1186.2" font-family="Times,serif" font-size="13.00">Generated by RailRoady 1.1.0</text>
<text text-anchor="start" x="1074.86" y="-1170.6" font-family="Times,serif" font-size="13.00">http://railroady.prestonlee.com</text>
</g>
<!-- ApplicationController -->
<g id="node2" class="node"><title>ApplicationController</title>
<polyline fill="none" stroke="black" points="485.548,-601.401 664.183,-601.401 "/>
<path fill="none" stroke="black" d="M664.183,-601.401C670.183,-601.401 676.183,-607.401 676.183,-613.401"/>
<polyline fill="none" stroke="black" points="676.183,-613.401 676.183,-687.801 "/>
<path fill="none" stroke="black" d="M676.183,-687.801C676.183,-693.801 670.183,-699.801 664.183,-699.801"/>
<polyline fill="none" stroke="black" points="664.183,-699.801 485.548,-699.801 "/>
<path fill="none" stroke="black" d="M485.548,-699.801C479.548,-699.801 473.548,-693.801 473.548,-687.801"/>
<polyline fill="none" stroke="black" points="473.548,-687.801 473.548,-613.401 "/>
<path fill="none" stroke="black" d="M473.548,-613.401C473.548,-607.401 479.548,-601.401 485.548,-601.401"/>
<text text-anchor="middle" x="574.866" y="-681.801" font-family="Times,serif" font-size="14.00">ApplicationController</text>
<polyline fill="none" stroke="black" points="473.548,-675.001 676.183,-675.001 "/>
<text text-anchor="start" x="481.548" y="-657.001" font-family="Times,serif" font-size="14.00">_one_time_conditions_valid_14?</text>
<polyline fill="none" stroke="black" points="473.548,-650.201 676.183,-650.201 "/>
<polyline fill="none" stroke="black" points="473.548,-626.201 676.183,-626.201 "/>
<text text-anchor="start" x="481.548" y="-608.201" font-family="Times,serif" font-size="14.00">_layout</text>
</g>
<!-- CoursesController -->
<g id="node3" class="node"><title>CoursesController</title>
<polyline fill="none" stroke="black" points="943.648,-785.659 1122.28,-785.659 "/>
<path fill="none" stroke="black" d="M1122.28,-785.659C1128.28,-785.659 1134.28,-791.659 1134.28,-797.659"/>
<polyline fill="none" stroke="black" points="1134.28,-797.659 1134.28,-1023.26 "/>
<path fill="none" stroke="black" d="M1134.28,-1023.26C1134.28,-1029.26 1128.28,-1035.26 1122.28,-1035.26"/>
<polyline fill="none" stroke="black" points="1122.28,-1035.26 943.648,-1035.26 "/>
<path fill="none" stroke="black" d="M943.648,-1035.26C937.648,-1035.26 931.648,-1029.26 931.648,-1023.26"/>
<polyline fill="none" stroke="black" points="931.648,-1023.26 931.648,-797.659 "/>
<path fill="none" stroke="black" d="M931.648,-797.659C931.648,-791.659 937.648,-785.659 943.648,-785.659"/>
<text text-anchor="middle" x="1032.97" y="-1017.26" font-family="Times,serif" font-size="14.00">CoursesController</text>
<polyline fill="none" stroke="black" points="931.648,-1010.46 1134.28,-1010.46 "/>
<text text-anchor="start" x="939.648" y="-992.459" font-family="Times,serif" font-size="14.00">_one_time_conditions_valid_36?</text>
<text text-anchor="start" x="939.648" y="-975.659" font-family="Times,serif" font-size="14.00">create</text>
<text text-anchor="start" x="939.648" y="-958.859" font-family="Times,serif" font-size="14.00">destroy</text>
<text text-anchor="start" x="939.648" y="-942.059" font-family="Times,serif" font-size="14.00">edit</text>
<text text-anchor="start" x="939.648" y="-925.259" font-family="Times,serif" font-size="14.00">index</text>
<text text-anchor="start" x="939.648" y="-908.459" font-family="Times,serif" font-size="14.00">json_dump</text>
<text text-anchor="start" x="939.648" y="-891.659" font-family="Times,serif" font-size="14.00">new</text>
<text text-anchor="start" x="939.648" y="-874.859" font-family="Times,serif" font-size="14.00">show</text>
<text text-anchor="start" x="939.648" y="-858.059" font-family="Times,serif" font-size="14.00">update</text>
<polyline fill="none" stroke="black" points="931.648,-851.259 1134.28,-851.259 "/>
<polyline fill="none" stroke="black" points="931.648,-827.259 1134.28,-827.259 "/>
<text text-anchor="start" x="939.648" y="-809.259" font-family="Times,serif" font-size="14.00">_layout</text>
<text text-anchor="start" x="939.648" y="-792.459" font-family="Times,serif" font-size="14.00">get_lookups</text>
</g>
<!-- ApplicationController&#45;&gt;CoursesController -->
<g id="edge2" class="edge"><title>ApplicationController&#45;&gt;CoursesController</title>
<path fill="none" stroke="black" d="M661.839,-699.937C738.649,-743.508 850.689,-807.062 931.551,-852.932"/>
</g>
<!-- LayoutFieldsController -->
<g id="node4" class="node"><title>LayoutFieldsController</title>
<polyline fill="none" stroke="black" points="385.34,-0.5 563.975,-0.5 "/>
<path fill="none" stroke="black" d="M563.975,-0.5C569.975,-0.5 575.975,-6.5 575.975,-12.5"/>
<polyline fill="none" stroke="black" points="575.975,-12.5 575.975,-254.9 "/>
<path fill="none" stroke="black" d="M575.975,-254.9C575.975,-260.9 569.975,-266.9 563.975,-266.9"/>
<polyline fill="none" stroke="black" points="563.975,-266.9 385.34,-266.9 "/>
<path fill="none" stroke="black" d="M385.34,-266.9C379.34,-266.9 373.34,-260.9 373.34,-254.9"/>
<polyline fill="none" stroke="black" points="373.34,-254.9 373.34,-12.5 "/>
<path fill="none" stroke="black" d="M373.34,-12.5C373.34,-6.5 379.34,-0.5 385.34,-0.5"/>
<text text-anchor="middle" x="474.657" y="-248.9" font-family="Times,serif" font-size="14.00">LayoutFieldsController</text>
<polyline fill="none" stroke="black" points="373.34,-242.1 575.975,-242.1 "/>
<text text-anchor="start" x="381.34" y="-224.1" font-family="Times,serif" font-size="14.00">_one_time_conditions_valid_42?</text>
<text text-anchor="start" x="381.34" y="-207.3" font-family="Times,serif" font-size="14.00">_one_time_conditions_valid_44?</text>
<text text-anchor="start" x="381.34" y="-190.5" font-family="Times,serif" font-size="14.00">create</text>
<text text-anchor="start" x="381.34" y="-173.7" font-family="Times,serif" font-size="14.00">destroy</text>
<text text-anchor="start" x="381.34" y="-156.9" font-family="Times,serif" font-size="14.00">edit</text>
<text text-anchor="start" x="381.34" y="-140.1" font-family="Times,serif" font-size="14.00">index</text>
<text text-anchor="start" x="381.34" y="-123.3" font-family="Times,serif" font-size="14.00">new</text>
<text text-anchor="start" x="381.34" y="-106.5" font-family="Times,serif" font-size="14.00">show</text>
<text text-anchor="start" x="381.34" y="-89.7" font-family="Times,serif" font-size="14.00">update</text>
<polyline fill="none" stroke="black" points="373.34,-82.9 575.975,-82.9 "/>
<polyline fill="none" stroke="black" points="373.34,-58.9 575.975,-58.9 "/>
<text text-anchor="start" x="381.34" y="-40.9" font-family="Times,serif" font-size="14.00">_layout</text>
<text text-anchor="start" x="381.34" y="-24.1" font-family="Times,serif" font-size="14.00">find_layout_field</text>
<text text-anchor="start" x="381.34" y="-7.3" font-family="Times,serif" font-size="14.00">find_lesson_layout</text>
</g>
<!-- ApplicationController&#45;&gt;LayoutFieldsController -->
<g id="edge4" class="edge"><title>ApplicationController&#45;&gt;LayoutFieldsController</title>
<path fill="none" stroke="black" d="M565.257,-601.039C550.488,-524.853 521.696,-376.337 500.518,-267.096"/>
</g>
<!-- LayoutTablesController -->
<g id="node5" class="node"><title>LayoutTablesController</title>
<polyline fill="none" stroke="black" points="161.344,-934.456 339.979,-934.456 "/>
<path fill="none" stroke="black" d="M339.979,-934.456C345.979,-934.456 351.979,-940.456 351.979,-946.456"/>
<polyline fill="none" stroke="black" points="351.979,-946.456 351.979,-1188.86 "/>
<path fill="none" stroke="black" d="M351.979,-1188.86C351.979,-1194.86 345.979,-1200.86 339.979,-1200.86"/>
<polyline fill="none" stroke="black" points="339.979,-1200.86 161.344,-1200.86 "/>
<path fill="none" stroke="black" d="M161.344,-1200.86C155.344,-1200.86 149.344,-1194.86 149.344,-1188.86"/>
<polyline fill="none" stroke="black" points="149.344,-1188.86 149.344,-946.456 "/>
<path fill="none" stroke="black" d="M149.344,-946.456C149.344,-940.456 155.344,-934.456 161.344,-934.456"/>
<text text-anchor="middle" x="250.661" y="-1182.86" font-family="Times,serif" font-size="14.00">LayoutTablesController</text>
<polyline fill="none" stroke="black" points="149.344,-1176.06 351.979,-1176.06 "/>
<text text-anchor="start" x="157.344" y="-1158.06" font-family="Times,serif" font-size="14.00">_one_time_conditions_valid_50?</text>
<text text-anchor="start" x="157.344" y="-1141.26" font-family="Times,serif" font-size="14.00">_one_time_conditions_valid_52?</text>
<text text-anchor="start" x="157.344" y="-1124.46" font-family="Times,serif" font-size="14.00">create</text>
<text text-anchor="start" x="157.344" y="-1107.66" font-family="Times,serif" font-size="14.00">destroy</text>
<text text-anchor="start" x="157.344" y="-1090.86" font-family="Times,serif" font-size="14.00">edit</text>
<text text-anchor="start" x="157.344" y="-1074.06" font-family="Times,serif" font-size="14.00">index</text>
<text text-anchor="start" x="157.344" y="-1057.26" font-family="Times,serif" font-size="14.00">new</text>
<text text-anchor="start" x="157.344" y="-1040.46" font-family="Times,serif" font-size="14.00">show</text>
<text text-anchor="start" x="157.344" y="-1023.66" font-family="Times,serif" font-size="14.00">update</text>
<polyline fill="none" stroke="black" points="149.344,-1016.86 351.979,-1016.86 "/>
<polyline fill="none" stroke="black" points="149.344,-992.856 351.979,-992.856 "/>
<text text-anchor="start" x="157.344" y="-974.856" font-family="Times,serif" font-size="14.00">_layout</text>
<text text-anchor="start" x="157.344" y="-958.056" font-family="Times,serif" font-size="14.00">find_layout_table</text>
<text text-anchor="start" x="157.344" y="-941.256" font-family="Times,serif" font-size="14.00">find_lesson_layout</text>
</g>
<!-- ApplicationController&#45;&gt;LayoutTablesController -->
<g id="edge6" class="edge"><title>ApplicationController&#45;&gt;LayoutTablesController</title>
<path fill="none" stroke="black" d="M536.402,-700.081C491.282,-758.122 414.699,-856.638 352.168,-937.078"/>
</g>
<!-- LessonLayoutsController -->
<g id="node6" class="node"><title>LessonLayoutsController</title>
<polyline fill="none" stroke="black" points="731.737,-985.628 910.372,-985.628 "/>
<path fill="none" stroke="black" d="M910.372,-985.628C916.372,-985.628 922.372,-991.628 922.372,-997.628"/>
<polyline fill="none" stroke="black" points="922.372,-997.628 922.372,-1240.03 "/>
<path fill="none" stroke="black" d="M922.372,-1240.03C922.372,-1246.03 916.372,-1252.03 910.372,-1252.03"/>
<polyline fill="none" stroke="black" points="910.372,-1252.03 731.737,-1252.03 "/>
<path fill="none" stroke="black" d="M731.737,-1252.03C725.737,-1252.03 719.737,-1246.03 719.737,-1240.03"/>
<polyline fill="none" stroke="black" points="719.737,-1240.03 719.737,-997.628 "/>
<path fill="none" stroke="black" d="M719.737,-997.628C719.737,-991.628 725.737,-985.628 731.737,-985.628"/>
<text text-anchor="middle" x="821.054" y="-1234.03" font-family="Times,serif" font-size="14.00">LessonLayoutsController</text>
<polyline fill="none" stroke="black" points="719.737,-1227.23 922.372,-1227.23 "/>
<text text-anchor="start" x="727.737" y="-1209.23" font-family="Times,serif" font-size="14.00">_one_time_conditions_valid_86?</text>
<text text-anchor="start" x="727.737" y="-1192.43" font-family="Times,serif" font-size="14.00">_one_time_conditions_valid_88?</text>
<text text-anchor="start" x="727.737" y="-1175.63" font-family="Times,serif" font-size="14.00">_one_time_conditions_valid_92?</text>
<text text-anchor="start" x="727.737" y="-1158.83" font-family="Times,serif" font-size="14.00">create</text>
<text text-anchor="start" x="727.737" y="-1142.03" font-family="Times,serif" font-size="14.00">destroy</text>
<text text-anchor="start" x="727.737" y="-1125.23" font-family="Times,serif" font-size="14.00">new</text>
<text text-anchor="start" x="727.737" y="-1108.43" font-family="Times,serif" font-size="14.00">show</text>
<text text-anchor="start" x="727.737" y="-1091.63" font-family="Times,serif" font-size="14.00">update</text>
<polyline fill="none" stroke="black" points="719.737,-1084.83 922.372,-1084.83 "/>
<polyline fill="none" stroke="black" points="719.737,-1060.83 922.372,-1060.83 "/>
<text text-anchor="start" x="727.737" y="-1042.83" font-family="Times,serif" font-size="14.00">_layout</text>
<text text-anchor="start" x="727.737" y="-1026.03" font-family="Times,serif" font-size="14.00">find_lesson</text>
<text text-anchor="start" x="727.737" y="-1009.23" font-family="Times,serif" font-size="14.00">find_lesson_layout</text>
<text text-anchor="start" x="727.737" y="-992.428" font-family="Times,serif" font-size="14.00">get_lookups</text>
</g>
<!-- ApplicationController&#45;&gt;LessonLayoutsController -->
<g id="edge8" class="edge"><title>ApplicationController&#45;&gt;LessonLayoutsController</title>
<path fill="none" stroke="black" d="M600.747,-699.825C636.054,-766.976 700.659,-889.848 750.813,-985.236"/>
</g>
<!-- LessonsController -->
<g id="node7" class="node"><title>LessonsController</title>
<polyline fill="none" stroke="black" points="435.882,-1043.54 621.004,-1043.54 "/>
<path fill="none" stroke="black" d="M621.004,-1043.54C627.004,-1043.54 633.004,-1049.54 633.004,-1055.54"/>
<polyline fill="none" stroke="black" points="633.004,-1055.54 633.004,-1297.94 "/>
<path fill="none" stroke="black" d="M633.004,-1297.94C633.004,-1303.94 627.004,-1309.94 621.004,-1309.94"/>
<polyline fill="none" stroke="black" points="621.004,-1309.94 435.882,-1309.94 "/>
<path fill="none" stroke="black" d="M435.882,-1309.94C429.882,-1309.94 423.882,-1303.94 423.882,-1297.94"/>
<polyline fill="none" stroke="black" points="423.882,-1297.94 423.882,-1055.54 "/>
<path fill="none" stroke="black" d="M423.882,-1055.54C423.882,-1049.54 429.882,-1043.54 435.882,-1043.54"/>
<text text-anchor="middle" x="528.443" y="-1291.94" font-family="Times,serif" font-size="14.00">LessonsController</text>
<polyline fill="none" stroke="black" points="423.882,-1285.14 633.004,-1285.14 "/>
<text text-anchor="start" x="431.882" y="-1267.14" font-family="Times,serif" font-size="14.00">_one_time_conditions_valid_112?</text>
<text text-anchor="start" x="431.882" y="-1250.34" font-family="Times,serif" font-size="14.00">_one_time_conditions_valid_114?</text>
<text text-anchor="start" x="431.882" y="-1233.54" font-family="Times,serif" font-size="14.00">_one_time_conditions_valid_118?</text>
<text text-anchor="start" x="431.882" y="-1216.74" font-family="Times,serif" font-size="14.00">create</text>
<text text-anchor="start" x="431.882" y="-1199.94" font-family="Times,serif" font-size="14.00">destroy</text>
<text text-anchor="start" x="431.882" y="-1183.14" font-family="Times,serif" font-size="14.00">new</text>
<text text-anchor="start" x="431.882" y="-1166.34" font-family="Times,serif" font-size="14.00">show</text>
<text text-anchor="start" x="431.882" y="-1149.54" font-family="Times,serif" font-size="14.00">update</text>
<polyline fill="none" stroke="black" points="423.882,-1142.74 633.004,-1142.74 "/>
<polyline fill="none" stroke="black" points="423.882,-1118.74 633.004,-1118.74 "/>
<text text-anchor="start" x="431.882" y="-1100.74" font-family="Times,serif" font-size="14.00">_layout</text>
<text text-anchor="start" x="431.882" y="-1083.94" font-family="Times,serif" font-size="14.00">find_lesson</text>
<text text-anchor="start" x="431.882" y="-1067.14" font-family="Times,serif" font-size="14.00">find_unit</text>
<text text-anchor="start" x="431.882" y="-1050.34" font-family="Times,serif" font-size="14.00">get_lookups</text>
</g>
<!-- ApplicationController&#45;&gt;LessonsController -->
<g id="edge10" class="edge"><title>ApplicationController&#45;&gt;LessonsController</title>
<path fill="none" stroke="black" d="M570.498,-700.099C563.631,-777.93 550.075,-931.573 540.205,-1043.44"/>
</g>
<!-- LookupsController -->
<g id="node8" class="node"><title>LookupsController</title>
<polyline fill="none" stroke="black" points="11.8638,-427.427 110.409,-427.427 "/>
<path fill="none" stroke="black" d="M110.409,-427.427C116.409,-427.427 122.409,-433.427 122.409,-439.427"/>
<polyline fill="none" stroke="black" points="122.409,-439.427 122.409,-614.627 "/>
<path fill="none" stroke="black" d="M122.409,-614.627C122.409,-620.627 116.409,-626.627 110.409,-626.627"/>
<polyline fill="none" stroke="black" points="110.409,-626.627 11.8638,-626.627 "/>
<path fill="none" stroke="black" d="M11.8638,-626.627C5.86377,-626.627 -0.13623,-620.627 -0.13623,-614.627"/>
<polyline fill="none" stroke="black" points="-0.13623,-614.627 -0.13623,-439.427 "/>
<path fill="none" stroke="black" d="M-0.13623,-439.427C-0.13623,-433.427 5.86377,-427.427 11.8638,-427.427"/>
<text text-anchor="middle" x="61.1362" y="-608.627" font-family="Times,serif" font-size="14.00">LookupsController</text>
<polyline fill="none" stroke="black" points="-0.13623,-601.827 122.409,-601.827 "/>
<text text-anchor="start" x="7.86377" y="-583.827" font-family="Times,serif" font-size="14.00">create</text>
<text text-anchor="start" x="7.86377" y="-567.027" font-family="Times,serif" font-size="14.00">destroy</text>
<text text-anchor="start" x="7.86377" y="-550.227" font-family="Times,serif" font-size="14.00">edit</text>
<text text-anchor="start" x="7.86377" y="-533.427" font-family="Times,serif" font-size="14.00">index</text>
<text text-anchor="start" x="7.86377" y="-516.627" font-family="Times,serif" font-size="14.00">new</text>
<text text-anchor="start" x="7.86377" y="-499.827" font-family="Times,serif" font-size="14.00">show</text>
<text text-anchor="start" x="7.86377" y="-483.027" font-family="Times,serif" font-size="14.00">update</text>
<polyline fill="none" stroke="black" points="-0.13623,-476.227 122.409,-476.227 "/>
<polyline fill="none" stroke="black" points="-0.13623,-452.227 122.409,-452.227 "/>
<text text-anchor="start" x="7.86377" y="-434.227" font-family="Times,serif" font-size="14.00">_layout</text>
</g>
<!-- ApplicationController&#45;&gt;LookupsController -->
<g id="edge12" class="edge"><title>ApplicationController&#45;&gt;LookupsController</title>
<path fill="none" stroke="black" d="M473.369,-626.187C368.831,-601.041 209.298,-562.666 122.536,-541.796"/>
</g>
<!-- MediaCatagoriesController -->
<g id="node9" class="node"><title>MediaCatagoriesController</title>
<polyline fill="none" stroke="black" points="1038.3,-570.661 1183.48,-570.661 "/>
<path fill="none" stroke="black" d="M1183.48,-570.661C1189.48,-570.661 1195.48,-576.661 1195.48,-582.661"/>
<polyline fill="none" stroke="black" points="1195.48,-582.661 1195.48,-656.261 "/>
<path fill="none" stroke="black" d="M1195.48,-656.261C1195.48,-662.261 1189.48,-668.261 1183.48,-668.261"/>
<polyline fill="none" stroke="black" points="1183.48,-668.261 1038.3,-668.261 "/>
<path fill="none" stroke="black" d="M1038.3,-668.261C1032.3,-668.261 1026.3,-662.261 1026.3,-656.261"/>
<polyline fill="none" stroke="black" points="1026.3,-656.261 1026.3,-582.661 "/>
<path fill="none" stroke="black" d="M1026.3,-582.661C1026.3,-576.661 1032.3,-570.661 1038.3,-570.661"/>
<text text-anchor="middle" x="1110.89" y="-650.261" font-family="Times,serif" font-size="14.00">MediaCatagoriesController</text>
<polyline fill="none" stroke="black" points="1026.3,-643.461 1195.48,-643.461 "/>
<polyline fill="none" stroke="black" points="1026.3,-619.461 1195.48,-619.461 "/>
<polyline fill="none" stroke="black" points="1026.3,-595.461 1195.48,-595.461 "/>
<text text-anchor="start" x="1034.3" y="-577.461" font-family="Times,serif" font-size="14.00">_layout</text>
</g>
<!-- ApplicationController&#45;&gt;MediaCatagoriesController -->
<g id="edge14" class="edge"><title>ApplicationController&#45;&gt;MediaCatagoriesController</title>
<path fill="none" stroke="black" d="M676.318,-644.707C777.539,-638.827 931.276,-629.896 1026.17,-624.383"/>
</g>
<!-- SentencesController -->
<g id="node10" class="node"><title>SentencesController</title>
<polyline fill="none" stroke="black" points="156.858,-168.553 262.382,-168.553 "/>
<path fill="none" stroke="black" d="M262.382,-168.553C268.382,-168.553 274.382,-174.553 274.382,-180.553"/>
<polyline fill="none" stroke="black" points="274.382,-180.553 274.382,-355.753 "/>
<path fill="none" stroke="black" d="M274.382,-355.753C274.382,-361.753 268.382,-367.753 262.382,-367.753"/>
<polyline fill="none" stroke="black" points="262.382,-367.753 156.858,-367.753 "/>
<path fill="none" stroke="black" d="M156.858,-367.753C150.858,-367.753 144.858,-361.753 144.858,-355.753"/>
<polyline fill="none" stroke="black" points="144.858,-355.753 144.858,-180.553 "/>
<path fill="none" stroke="black" d="M144.858,-180.553C144.858,-174.553 150.858,-168.553 156.858,-168.553"/>
<text text-anchor="middle" x="209.62" y="-349.753" font-family="Times,serif" font-size="14.00">SentencesController</text>
<polyline fill="none" stroke="black" points="144.858,-342.953 274.382,-342.953 "/>
<text text-anchor="start" x="152.858" y="-324.953" font-family="Times,serif" font-size="14.00">create</text>
<text text-anchor="start" x="152.858" y="-308.153" font-family="Times,serif" font-size="14.00">destroy</text>
<text text-anchor="start" x="152.858" y="-291.353" font-family="Times,serif" font-size="14.00">edit</text>
<text text-anchor="start" x="152.858" y="-274.553" font-family="Times,serif" font-size="14.00">index</text>
<text text-anchor="start" x="152.858" y="-257.753" font-family="Times,serif" font-size="14.00">new</text>
<text text-anchor="start" x="152.858" y="-240.953" font-family="Times,serif" font-size="14.00">show</text>
<text text-anchor="start" x="152.858" y="-224.153" font-family="Times,serif" font-size="14.00">update</text>
<polyline fill="none" stroke="black" points="144.858,-217.353 274.382,-217.353 "/>
<polyline fill="none" stroke="black" points="144.858,-193.353 274.382,-193.353 "/>
<text text-anchor="start" x="152.858" y="-175.353" font-family="Times,serif" font-size="14.00">_layout</text>
</g>
<!-- ApplicationController&#45;&gt;SentencesController -->
<g id="edge16" class="edge"><title>ApplicationController&#45;&gt;SentencesController</title>
<path fill="none" stroke="black" d="M527.864,-601.386C463.416,-533.902 347.343,-412.362 274.608,-336.202"/>
</g>
<!-- UnitLayoutsController -->
<g id="node11" class="node"><title>UnitLayoutsController</title>
<polyline fill="none" stroke="black" points="682.893,-19.1677 868.528,-19.1677 "/>
<path fill="none" stroke="black" d="M868.528,-19.1677C874.528,-19.1677 880.528,-25.1677 880.528,-31.1677"/>
<polyline fill="none" stroke="black" points="880.528,-31.1677 880.528,-273.568 "/>
<path fill="none" stroke="black" d="M880.528,-273.568C880.528,-279.568 874.528,-285.568 868.528,-285.568"/>
<polyline fill="none" stroke="black" points="868.528,-285.568 682.893,-285.568 "/>
<path fill="none" stroke="black" d="M682.893,-285.568C676.893,-285.568 670.893,-279.568 670.893,-273.568"/>
<polyline fill="none" stroke="black" points="670.893,-273.568 670.893,-31.1677 "/>
<path fill="none" stroke="black" d="M670.893,-31.1677C670.893,-25.1677 676.893,-19.1677 682.893,-19.1677"/>
<text text-anchor="middle" x="775.711" y="-267.568" font-family="Times,serif" font-size="14.00">UnitLayoutsController</text>
<polyline fill="none" stroke="black" points="670.893,-260.768 880.528,-260.768 "/>
<text text-anchor="start" x="678.893" y="-242.768" font-family="Times,serif" font-size="14.00">_one_time_conditions_valid_154?</text>
<text text-anchor="start" x="678.893" y="-225.968" font-family="Times,serif" font-size="14.00">_one_time_conditions_valid_156?</text>
<text text-anchor="start" x="678.893" y="-209.168" font-family="Times,serif" font-size="14.00">_one_time_conditions_valid_160?</text>
<text text-anchor="start" x="678.893" y="-192.368" font-family="Times,serif" font-size="14.00">create</text>
<text text-anchor="start" x="678.893" y="-175.568" font-family="Times,serif" font-size="14.00">destroy</text>
<text text-anchor="start" x="678.893" y="-158.768" font-family="Times,serif" font-size="14.00">new</text>
<text text-anchor="start" x="678.893" y="-141.968" font-family="Times,serif" font-size="14.00">show</text>
<text text-anchor="start" x="678.893" y="-125.168" font-family="Times,serif" font-size="14.00">update</text>
<polyline fill="none" stroke="black" points="670.893,-118.368 880.528,-118.368 "/>
<polyline fill="none" stroke="black" points="670.893,-94.3677 880.528,-94.3677 "/>
<text text-anchor="start" x="678.893" y="-76.3677" font-family="Times,serif" font-size="14.00">_layout</text>
<text text-anchor="start" x="678.893" y="-59.5677" font-family="Times,serif" font-size="14.00">find_unit</text>
<text text-anchor="start" x="678.893" y="-42.7677" font-family="Times,serif" font-size="14.00">find_unit_layout</text>
<text text-anchor="start" x="678.893" y="-25.9677" font-family="Times,serif" font-size="14.00">get_lookups</text>
</g>
<!-- ApplicationController&#45;&gt;UnitLayoutsController -->
<g id="edge18" class="edge"><title>ApplicationController&#45;&gt;UnitLayoutsController</title>
<path fill="none" stroke="black" d="M594.858,-601.007C624.227,-528.151 680.084,-389.586 721.987,-285.64"/>
</g>
<!-- UnitsController -->
<g id="node12" class="node"><title>UnitsController</title>
<polyline fill="none" stroke="black" points="900.528,-216.727 1086.16,-216.727 "/>
<path fill="none" stroke="black" d="M1086.16,-216.727C1092.16,-216.727 1098.16,-222.727 1098.16,-228.727"/>
<polyline fill="none" stroke="black" points="1098.16,-228.727 1098.16,-471.127 "/>
<path fill="none" stroke="black" d="M1098.16,-471.127C1098.16,-477.127 1092.16,-483.127 1086.16,-483.127"/>
<polyline fill="none" stroke="black" points="1086.16,-483.127 900.528,-483.127 "/>
<path fill="none" stroke="black" d="M900.528,-483.127C894.528,-483.127 888.528,-477.127 888.528,-471.127"/>
<polyline fill="none" stroke="black" points="888.528,-471.127 888.528,-228.727 "/>
<path fill="none" stroke="black" d="M888.528,-228.727C888.528,-222.727 894.528,-216.727 900.528,-216.727"/>
<text text-anchor="middle" x="993.345" y="-465.127" font-family="Times,serif" font-size="14.00">UnitsController</text>
<polyline fill="none" stroke="black" points="888.528,-458.327 1098.16,-458.327 "/>
<text text-anchor="start" x="896.528" y="-440.327" font-family="Times,serif" font-size="14.00">_one_time_conditions_valid_180?</text>
<text text-anchor="start" x="896.528" y="-423.527" font-family="Times,serif" font-size="14.00">_one_time_conditions_valid_182?</text>
<text text-anchor="start" x="896.528" y="-406.727" font-family="Times,serif" font-size="14.00">_one_time_conditions_valid_186?</text>
<text text-anchor="start" x="896.528" y="-389.927" font-family="Times,serif" font-size="14.00">create</text>
<text text-anchor="start" x="896.528" y="-373.127" font-family="Times,serif" font-size="14.00">destroy</text>
<text text-anchor="start" x="896.528" y="-356.327" font-family="Times,serif" font-size="14.00">new</text>
<text text-anchor="start" x="896.528" y="-339.527" font-family="Times,serif" font-size="14.00">show</text>
<text text-anchor="start" x="896.528" y="-322.727" font-family="Times,serif" font-size="14.00">update</text>
<polyline fill="none" stroke="black" points="888.528,-315.927 1098.16,-315.927 "/>
<polyline fill="none" stroke="black" points="888.528,-291.927 1098.16,-291.927 "/>
<text text-anchor="start" x="896.528" y="-273.927" font-family="Times,serif" font-size="14.00">_layout</text>
<text text-anchor="start" x="896.528" y="-257.127" font-family="Times,serif" font-size="14.00">find_course</text>
<text text-anchor="start" x="896.528" y="-240.327" font-family="Times,serif" font-size="14.00">find_unit</text>
<text text-anchor="start" x="896.528" y="-223.527" font-family="Times,serif" font-size="14.00">get_lookups</text>
</g>
<!-- ApplicationController&#45;&gt;UnitsController -->
<g id="edge20" class="edge"><title>ApplicationController&#45;&gt;UnitsController</title>
<path fill="none" stroke="black" d="M643.5,-601.288C709.934,-553.556 811.562,-480.537 888.195,-425.477"/>
</g>
<!-- WordsController -->
<g id="node13" class="node"><title>WordsController</title>
<polyline fill="none" stroke="black" points="33.678,-725.521 119.433,-725.521 "/>
<path fill="none" stroke="black" d="M119.433,-725.521C125.433,-725.521 131.433,-731.521 131.433,-737.521"/>
<polyline fill="none" stroke="black" points="131.433,-737.521 131.433,-912.721 "/>
<path fill="none" stroke="black" d="M131.433,-912.721C131.433,-918.721 125.433,-924.721 119.433,-924.721"/>
<polyline fill="none" stroke="black" points="119.433,-924.721 33.678,-924.721 "/>
<path fill="none" stroke="black" d="M33.678,-924.721C27.678,-924.721 21.678,-918.721 21.678,-912.721"/>
<polyline fill="none" stroke="black" points="21.678,-912.721 21.678,-737.521 "/>
<path fill="none" stroke="black" d="M21.678,-737.521C21.678,-731.521 27.678,-725.521 33.678,-725.521"/>
<text text-anchor="middle" x="76.5554" y="-906.721" font-family="Times,serif" font-size="14.00">WordsController</text>
<polyline fill="none" stroke="black" points="21.678,-899.921 131.433,-899.921 "/>
<text text-anchor="start" x="29.678" y="-881.921" font-family="Times,serif" font-size="14.00">create</text>
<text text-anchor="start" x="29.678" y="-865.121" font-family="Times,serif" font-size="14.00">destroy</text>
<text text-anchor="start" x="29.678" y="-848.321" font-family="Times,serif" font-size="14.00">edit</text>
<text text-anchor="start" x="29.678" y="-831.521" font-family="Times,serif" font-size="14.00">index</text>
<text text-anchor="start" x="29.678" y="-814.721" font-family="Times,serif" font-size="14.00">new</text>
<text text-anchor="start" x="29.678" y="-797.921" font-family="Times,serif" font-size="14.00">show</text>
<text text-anchor="start" x="29.678" y="-781.121" font-family="Times,serif" font-size="14.00">update</text>
<polyline fill="none" stroke="black" points="21.678,-774.321 131.433,-774.321 "/>
<polyline fill="none" stroke="black" points="21.678,-750.321 131.433,-750.321 "/>
<text text-anchor="start" x="29.678" y="-732.321" font-family="Times,serif" font-size="14.00">_layout</text>
</g>
<!-- ApplicationController&#45;&gt;WordsController -->
<g id="edge22" class="edge"><title>ApplicationController&#45;&gt;WordsController</title>
<path fill="none" stroke="black" d="M473.424,-686.128C370.126,-722.306 213.812,-777.05 131.581,-805.85"/>
</g>
</g>
</svg>
