<?xml version="1.0" encoding="UTF-8" standalone="no"?>
<!DOCTYPE svg PUBLIC "-//W3C//DTD SVG 1.1//EN"
 "http://www.w3.org/Graphics/SVG/1.1/DTD/svg11.dtd">
<!-- Generated by graphviz version 2.28.0 (20121028.1614)
 -->
<!-- Title: controllers_diagram Pages: 1 -->
<svg width="1931pt" height="1900pt"
 viewBox="0.00 0.00 1930.52 1899.65" xmlns="http://www.w3.org/2000/svg" xmlns:xlink="http://www.w3.org/1999/xlink">
<g id="graph1" class="graph" transform="scale(1 1) rotate(0) translate(4 1895.65)">
<title>controllers_diagram</title>
<polygon fill="white" stroke="white" points="-4,5 -4,-1895.65 1927.52,-1895.65 1927.52,5 -4,5"/>
<!-- _diagram_info -->
<g id="node1" class="node"><title>_diagram_info</title>
<text text-anchor="start" x="1723.62" y="-212" font-family="Times,serif" font-size="13.00">Controllers diagram</text>
<text text-anchor="start" x="1723.62" y="-196.4" font-family="Times,serif" font-size="13.00">Date: Oct 31 2012 &#45; 17:41</text>
<text text-anchor="start" x="1723.62" y="-180.8" font-family="Times,serif" font-size="13.00">Migration version: 20121031163837</text>
<text text-anchor="start" x="1723.62" y="-165.2" font-family="Times,serif" font-size="13.00">Generated by RailRoady 1.1.0</text>
<text text-anchor="start" x="1723.62" y="-149.6" font-family="Times,serif" font-size="13.00">http://railroady.prestonlee.com</text>
</g>
<!-- ApplicationController -->
<g id="node2" class="node"><title>ApplicationController</title>
<polyline fill="none" stroke="black" points="810.566,-877.188 989.201,-877.188 "/>
<path fill="none" stroke="black" d="M989.201,-877.188C995.201,-877.188 1001.2,-883.188 1001.2,-889.188"/>
<polyline fill="none" stroke="black" points="1001.2,-889.188 1001.2,-963.588 "/>
<path fill="none" stroke="black" d="M1001.2,-963.588C1001.2,-969.588 995.201,-975.588 989.201,-975.588"/>
<polyline fill="none" stroke="black" points="989.201,-975.588 810.566,-975.588 "/>
<path fill="none" stroke="black" d="M810.566,-975.588C804.566,-975.588 798.566,-969.588 798.566,-963.588"/>
<polyline fill="none" stroke="black" points="798.566,-963.588 798.566,-889.188 "/>
<path fill="none" stroke="black" d="M798.566,-889.188C798.566,-883.188 804.566,-877.188 810.566,-877.188"/>
<text text-anchor="middle" x="899.883" y="-957.588" font-family="Times,serif" font-size="14.00">ApplicationController</text>
<polyline fill="none" stroke="black" points="798.566,-950.788 1001.2,-950.788 "/>
<text text-anchor="start" x="806.566" y="-932.788" font-family="Times,serif" font-size="14.00">_one_time_conditions_valid_14?</text>
<polyline fill="none" stroke="black" points="798.566,-925.988 1001.2,-925.988 "/>
<polyline fill="none" stroke="black" points="798.566,-901.988 1001.2,-901.988 "/>
<text text-anchor="start" x="806.566" y="-883.988" font-family="Times,serif" font-size="14.00">_layout</text>
</g>
<!-- BadgesController -->
<g id="node3" class="node"><title>BadgesController</title>
<polyline fill="none" stroke="black" points="1456.27,-1193.88 1547.02,-1193.88 "/>
<path fill="none" stroke="black" d="M1547.02,-1193.88C1553.02,-1193.88 1559.02,-1199.88 1559.02,-1205.88"/>
<polyline fill="none" stroke="black" points="1559.02,-1205.88 1559.02,-1381.08 "/>
<path fill="none" stroke="black" d="M1559.02,-1381.08C1559.02,-1387.08 1553.02,-1393.08 1547.02,-1393.08"/>
<polyline fill="none" stroke="black" points="1547.02,-1393.08 1456.27,-1393.08 "/>
<path fill="none" stroke="black" d="M1456.27,-1393.08C1450.27,-1393.08 1444.27,-1387.08 1444.27,-1381.08"/>
<polyline fill="none" stroke="black" points="1444.27,-1381.08 1444.27,-1205.88 "/>
<path fill="none" stroke="black" d="M1444.27,-1205.88C1444.27,-1199.88 1450.27,-1193.88 1456.27,-1193.88"/>
<text text-anchor="middle" x="1501.65" y="-1375.08" font-family="Times,serif" font-size="14.00">BadgesController</text>
<polyline fill="none" stroke="black" points="1444.27,-1368.28 1559.02,-1368.28 "/>
<text text-anchor="start" x="1452.27" y="-1350.28" font-family="Times,serif" font-size="14.00">create</text>
<text text-anchor="start" x="1452.27" y="-1333.48" font-family="Times,serif" font-size="14.00">destroy</text>
<text text-anchor="start" x="1452.27" y="-1316.68" font-family="Times,serif" font-size="14.00">edit</text>
<text text-anchor="start" x="1452.27" y="-1299.88" font-family="Times,serif" font-size="14.00">index</text>
<text text-anchor="start" x="1452.27" y="-1283.08" font-family="Times,serif" font-size="14.00">new</text>
<text text-anchor="start" x="1452.27" y="-1266.28" font-family="Times,serif" font-size="14.00">show</text>
<text text-anchor="start" x="1452.27" y="-1249.48" font-family="Times,serif" font-size="14.00">update</text>
<polyline fill="none" stroke="black" points="1444.27,-1242.68 1559.02,-1242.68 "/>
<polyline fill="none" stroke="black" points="1444.27,-1218.68 1559.02,-1218.68 "/>
<text text-anchor="start" x="1452.27" y="-1200.68" font-family="Times,serif" font-size="14.00">_layout</text>
</g>
<!-- ApplicationController&#45;&gt;BadgesController -->
<g id="edge2" class="edge"><title>ApplicationController&#45;&gt;BadgesController</title>
<path fill="none" stroke="black" d="M980.727,-975.706C1104.13,-1050.99 1336.49,-1192.73 1444.17,-1258.42"/>
</g>
<!-- CourseSessionsController -->
<g id="node4" class="node"><title>CourseSessionsController</title>
<polyline fill="none" stroke="black" points="626.162,-0.5 763.603,-0.5 "/>
<path fill="none" stroke="black" d="M763.603,-0.5C769.603,-0.5 775.603,-6.5 775.603,-12.5"/>
<polyline fill="none" stroke="black" points="775.603,-12.5 775.603,-187.7 "/>
<path fill="none" stroke="black" d="M775.603,-187.7C775.603,-193.7 769.603,-199.7 763.603,-199.7"/>
<polyline fill="none" stroke="black" points="763.603,-199.7 626.162,-199.7 "/>
<path fill="none" stroke="black" d="M626.162,-199.7C620.162,-199.7 614.162,-193.7 614.162,-187.7"/>
<polyline fill="none" stroke="black" points="614.162,-187.7 614.162,-12.5 "/>
<path fill="none" stroke="black" d="M614.162,-12.5C614.162,-6.5 620.162,-0.5 626.162,-0.5"/>
<text text-anchor="middle" x="694.882" y="-181.7" font-family="Times,serif" font-size="14.00">CourseSessionsController</text>
<polyline fill="none" stroke="black" points="614.162,-174.9 775.603,-174.9 "/>
<text text-anchor="start" x="622.162" y="-156.9" font-family="Times,serif" font-size="14.00">create</text>
<text text-anchor="start" x="622.162" y="-140.1" font-family="Times,serif" font-size="14.00">destroy</text>
<text text-anchor="start" x="622.162" y="-123.3" font-family="Times,serif" font-size="14.00">edit</text>
<text text-anchor="start" x="622.162" y="-106.5" font-family="Times,serif" font-size="14.00">index</text>
<text text-anchor="start" x="622.162" y="-89.7" font-family="Times,serif" font-size="14.00">new</text>
<text text-anchor="start" x="622.162" y="-72.9" font-family="Times,serif" font-size="14.00">show</text>
<text text-anchor="start" x="622.162" y="-56.1" font-family="Times,serif" font-size="14.00">update</text>
<polyline fill="none" stroke="black" points="614.162,-49.3 775.603,-49.3 "/>
<polyline fill="none" stroke="black" points="614.162,-25.3 775.603,-25.3 "/>
<text text-anchor="start" x="622.162" y="-7.3" font-family="Times,serif" font-size="14.00">_layout</text>
</g>
<!-- ApplicationController&#45;&gt;CourseSessionsController -->
<g id="edge4" class="edge"><title>ApplicationController&#45;&gt;CourseSessionsController</title>
<path fill="none" stroke="black" d="M887.673,-877.175C854.789,-744.63 763.873,-378.176 719.663,-199.982"/>
</g>
<!-- CoursesController -->
<g id="node5" class="node"><title>CoursesController</title>
<polyline fill="none" stroke="black" points="374.764,-1486.59 553.399,-1486.59 "/>
<path fill="none" stroke="black" d="M553.399,-1486.59C559.399,-1486.59 565.399,-1492.59 565.399,-1498.59"/>
<polyline fill="none" stroke="black" points="565.399,-1498.59 565.399,-1724.19 "/>
<path fill="none" stroke="black" d="M565.399,-1724.19C565.399,-1730.19 559.399,-1736.19 553.399,-1736.19"/>
<polyline fill="none" stroke="black" points="553.399,-1736.19 374.764,-1736.19 "/>
<path fill="none" stroke="black" d="M374.764,-1736.19C368.764,-1736.19 362.764,-1730.19 362.764,-1724.19"/>
<polyline fill="none" stroke="black" points="362.764,-1724.19 362.764,-1498.59 "/>
<path fill="none" stroke="black" d="M362.764,-1498.59C362.764,-1492.59 368.764,-1486.59 374.764,-1486.59"/>
<text text-anchor="middle" x="464.081" y="-1718.19" font-family="Times,serif" font-size="14.00">CoursesController</text>
<polyline fill="none" stroke="black" points="362.764,-1711.39 565.399,-1711.39 "/>
<text text-anchor="start" x="370.764" y="-1693.39" font-family="Times,serif" font-size="14.00">_one_time_conditions_valid_76?</text>
<text text-anchor="start" x="370.764" y="-1676.59" font-family="Times,serif" font-size="14.00">create</text>
<text text-anchor="start" x="370.764" y="-1659.79" font-family="Times,serif" font-size="14.00">destroy</text>
<text text-anchor="start" x="370.764" y="-1642.99" font-family="Times,serif" font-size="14.00">edit</text>
<text text-anchor="start" x="370.764" y="-1626.19" font-family="Times,serif" font-size="14.00">index</text>
<text text-anchor="start" x="370.764" y="-1609.39" font-family="Times,serif" font-size="14.00">json_dump</text>
<text text-anchor="start" x="370.764" y="-1592.59" font-family="Times,serif" font-size="14.00">new</text>
<text text-anchor="start" x="370.764" y="-1575.79" font-family="Times,serif" font-size="14.00">show</text>
<text text-anchor="start" x="370.764" y="-1558.99" font-family="Times,serif" font-size="14.00">update</text>
<polyline fill="none" stroke="black" points="362.764,-1552.19 565.399,-1552.19 "/>
<polyline fill="none" stroke="black" points="362.764,-1528.19 565.399,-1528.19 "/>
<text text-anchor="start" x="370.764" y="-1510.19" font-family="Times,serif" font-size="14.00">_layout</text>
<text text-anchor="start" x="370.764" y="-1493.39" font-family="Times,serif" font-size="14.00">get_lookups</text>
</g>
<!-- ApplicationController&#45;&gt;CoursesController -->
<g id="edge6" class="edge"><title>ApplicationController&#45;&gt;CoursesController</title>
<path fill="none" stroke="black" d="M868.541,-975.652C801.209,-1081.49 640.975,-1333.34 543.61,-1486.38"/>
</g>
<!-- LayoutFieldsController -->
<g id="node6" class="node"><title>LayoutFieldsController</title>
<polyline fill="none" stroke="black" points="960.36,-1423.65 1138.99,-1423.65 "/>
<path fill="none" stroke="black" d="M1138.99,-1423.65C1144.99,-1423.65 1150.99,-1429.65 1150.99,-1435.65"/>
<polyline fill="none" stroke="black" points="1150.99,-1435.65 1150.99,-1678.05 "/>
<path fill="none" stroke="black" d="M1150.99,-1678.05C1150.99,-1684.05 1144.99,-1690.05 1138.99,-1690.05"/>
<polyline fill="none" stroke="black" points="1138.99,-1690.05 960.36,-1690.05 "/>
<path fill="none" stroke="black" d="M960.36,-1690.05C954.36,-1690.05 948.36,-1684.05 948.36,-1678.05"/>
<polyline fill="none" stroke="black" points="948.36,-1678.05 948.36,-1435.65 "/>
<path fill="none" stroke="black" d="M948.36,-1435.65C948.36,-1429.65 954.36,-1423.65 960.36,-1423.65"/>
<text text-anchor="middle" x="1049.68" y="-1672.05" font-family="Times,serif" font-size="14.00">LayoutFieldsController</text>
<polyline fill="none" stroke="black" points="948.36,-1665.25 1150.99,-1665.25 "/>
<text text-anchor="start" x="956.36" y="-1647.25" font-family="Times,serif" font-size="14.00">_one_time_conditions_valid_82?</text>
<text text-anchor="start" x="956.36" y="-1630.45" font-family="Times,serif" font-size="14.00">_one_time_conditions_valid_84?</text>
<text text-anchor="start" x="956.36" y="-1613.65" font-family="Times,serif" font-size="14.00">create</text>
<text text-anchor="start" x="956.36" y="-1596.85" font-family="Times,serif" font-size="14.00">destroy</text>
<text text-anchor="start" x="956.36" y="-1580.05" font-family="Times,serif" font-size="14.00">edit</text>
<text text-anchor="start" x="956.36" y="-1563.25" font-family="Times,serif" font-size="14.00">index</text>
<text text-anchor="start" x="956.36" y="-1546.45" font-family="Times,serif" font-size="14.00">new</text>
<text text-anchor="start" x="956.36" y="-1529.65" font-family="Times,serif" font-size="14.00">show</text>
<text text-anchor="start" x="956.36" y="-1512.85" font-family="Times,serif" font-size="14.00">update</text>
<polyline fill="none" stroke="black" points="948.36,-1506.05 1150.99,-1506.05 "/>
<polyline fill="none" stroke="black" points="948.36,-1482.05 1150.99,-1482.05 "/>
<text text-anchor="start" x="956.36" y="-1464.05" font-family="Times,serif" font-size="14.00">_layout</text>
<text text-anchor="start" x="956.36" y="-1447.25" font-family="Times,serif" font-size="14.00">find_layout_field</text>
<text text-anchor="start" x="956.36" y="-1430.45" font-family="Times,serif" font-size="14.00">find_lesson_layout</text>
</g>
<!-- ApplicationController&#45;&gt;LayoutFieldsController -->
<g id="edge8" class="edge"><title>ApplicationController&#45;&gt;LayoutFieldsController</title>
<path fill="none" stroke="black" d="M911.575,-975.597C934.211,-1070.87 984.715,-1283.43 1017.97,-1423.38"/>
</g>
<!-- LayoutTablesController -->
<g id="node7" class="node"><title>LayoutTablesController</title>
<polyline fill="none" stroke="black" points="204.174,-1211.19 382.809,-1211.19 "/>
<path fill="none" stroke="black" d="M382.809,-1211.19C388.809,-1211.19 394.809,-1217.19 394.809,-1223.19"/>
<polyline fill="none" stroke="black" points="394.809,-1223.19 394.809,-1465.59 "/>
<path fill="none" stroke="black" d="M394.809,-1465.59C394.809,-1471.59 388.809,-1477.59 382.809,-1477.59"/>
<polyline fill="none" stroke="black" points="382.809,-1477.59 204.174,-1477.59 "/>
<path fill="none" stroke="black" d="M204.174,-1477.59C198.174,-1477.59 192.174,-1471.59 192.174,-1465.59"/>
<polyline fill="none" stroke="black" points="192.174,-1465.59 192.174,-1223.19 "/>
<path fill="none" stroke="black" d="M192.174,-1223.19C192.174,-1217.19 198.174,-1211.19 204.174,-1211.19"/>
<text text-anchor="middle" x="293.492" y="-1459.59" font-family="Times,serif" font-size="14.00">LayoutTablesController</text>
<polyline fill="none" stroke="black" points="192.174,-1452.79 394.809,-1452.79 "/>
<text text-anchor="start" x="200.174" y="-1434.79" font-family="Times,serif" font-size="14.00">_one_time_conditions_valid_90?</text>
<text text-anchor="start" x="200.174" y="-1417.99" font-family="Times,serif" font-size="14.00">_one_time_conditions_valid_92?</text>
<text text-anchor="start" x="200.174" y="-1401.19" font-family="Times,serif" font-size="14.00">create</text>
<text text-anchor="start" x="200.174" y="-1384.39" font-family="Times,serif" font-size="14.00">destroy</text>
<text text-anchor="start" x="200.174" y="-1367.59" font-family="Times,serif" font-size="14.00">edit</text>
<text text-anchor="start" x="200.174" y="-1350.79" font-family="Times,serif" font-size="14.00">index</text>
<text text-anchor="start" x="200.174" y="-1333.99" font-family="Times,serif" font-size="14.00">new</text>
<text text-anchor="start" x="200.174" y="-1317.19" font-family="Times,serif" font-size="14.00">show</text>
<text text-anchor="start" x="200.174" y="-1300.39" font-family="Times,serif" font-size="14.00">update</text>
<polyline fill="none" stroke="black" points="192.174,-1293.59 394.809,-1293.59 "/>
<polyline fill="none" stroke="black" points="192.174,-1269.59 394.809,-1269.59 "/>
<text text-anchor="start" x="200.174" y="-1251.59" font-family="Times,serif" font-size="14.00">_layout</text>
<text text-anchor="start" x="200.174" y="-1234.79" font-family="Times,serif" font-size="14.00">find_layout_table</text>
<text text-anchor="start" x="200.174" y="-1217.99" font-family="Times,serif" font-size="14.00">find_lesson_layout</text>
</g>
<!-- ApplicationController&#45;&gt;LayoutTablesController -->
<g id="edge10" class="edge"><title>ApplicationController&#45;&gt;LayoutTablesController</title>
<path fill="none" stroke="black" d="M828.24,-975.773C720.822,-1049.82 517.58,-1189.92 394.947,-1274.45"/>
</g>
<!-- LessonLayoutsController -->
<g id="node8" class="node"><title>LessonLayoutsController</title>
<polyline fill="none" stroke="black" points="65.2057,-342.905 250.84,-342.905 "/>
<path fill="none" stroke="black" d="M250.84,-342.905C256.84,-342.905 262.84,-348.905 262.84,-354.905"/>
<polyline fill="none" stroke="black" points="262.84,-354.905 262.84,-597.305 "/>
<path fill="none" stroke="black" d="M262.84,-597.305C262.84,-603.305 256.84,-609.305 250.84,-609.305"/>
<polyline fill="none" stroke="black" points="250.84,-609.305 65.2057,-609.305 "/>
<path fill="none" stroke="black" d="M65.2057,-609.305C59.2057,-609.305 53.2057,-603.305 53.2057,-597.305"/>
<polyline fill="none" stroke="black" points="53.2057,-597.305 53.2057,-354.905 "/>
<path fill="none" stroke="black" d="M53.2057,-354.905C53.2057,-348.905 59.2057,-342.905 65.2057,-342.905"/>
<text text-anchor="middle" x="158.023" y="-591.305" font-family="Times,serif" font-size="14.00">LessonLayoutsController</text>
<polyline fill="none" stroke="black" points="53.2057,-584.505 262.84,-584.505 "/>
<text text-anchor="start" x="61.2057" y="-566.505" font-family="Times,serif" font-size="14.00">_one_time_conditions_valid_126?</text>
<text text-anchor="start" x="61.2057" y="-549.705" font-family="Times,serif" font-size="14.00">_one_time_conditions_valid_128?</text>
<text text-anchor="start" x="61.2057" y="-532.905" font-family="Times,serif" font-size="14.00">_one_time_conditions_valid_132?</text>
<text text-anchor="start" x="61.2057" y="-516.105" font-family="Times,serif" font-size="14.00">create</text>
<text text-anchor="start" x="61.2057" y="-499.305" font-family="Times,serif" font-size="14.00">destroy</text>
<text text-anchor="start" x="61.2057" y="-482.505" font-family="Times,serif" font-size="14.00">new</text>
<text text-anchor="start" x="61.2057" y="-465.705" font-family="Times,serif" font-size="14.00">show</text>
<text text-anchor="start" x="61.2057" y="-448.905" font-family="Times,serif" font-size="14.00">update</text>
<polyline fill="none" stroke="black" points="53.2057,-442.105 262.84,-442.105 "/>
<polyline fill="none" stroke="black" points="53.2057,-418.105 262.84,-418.105 "/>
<text text-anchor="start" x="61.2057" y="-400.105" font-family="Times,serif" font-size="14.00">_layout</text>
<text text-anchor="start" x="61.2057" y="-383.305" font-family="Times,serif" font-size="14.00">find_lesson</text>
<text text-anchor="start" x="61.2057" y="-366.505" font-family="Times,serif" font-size="14.00">find_lesson_layout</text>
<text text-anchor="start" x="61.2057" y="-349.705" font-family="Times,serif" font-size="14.00">get_lookups</text>
</g>
<!-- ApplicationController&#45;&gt;LessonLayoutsController -->
<g id="edge12" class="edge"><title>ApplicationController&#45;&gt;LessonLayoutsController</title>
<path fill="none" stroke="black" d="M818.724,-877.128C683.564,-795.09 412.475,-630.549 262.977,-539.809"/>
</g>
<!-- LessonsController -->
<g id="node9" class="node"><title>LessonsController</title>
<polyline fill="none" stroke="black" points="1606.72,-558.3 1792.35,-558.3 "/>
<path fill="none" stroke="black" d="M1792.35,-558.3C1798.35,-558.3 1804.35,-564.3 1804.35,-570.3"/>
<polyline fill="none" stroke="black" points="1804.35,-570.3 1804.35,-812.7 "/>
<path fill="none" stroke="black" d="M1804.35,-812.7C1804.35,-818.7 1798.35,-824.7 1792.35,-824.7"/>
<polyline fill="none" stroke="black" points="1792.35,-824.7 1606.72,-824.7 "/>
<path fill="none" stroke="black" d="M1606.72,-824.7C1600.72,-824.7 1594.72,-818.7 1594.72,-812.7"/>
<polyline fill="none" stroke="black" points="1594.72,-812.7 1594.72,-570.3 "/>
<path fill="none" stroke="black" d="M1594.72,-570.3C1594.72,-564.3 1600.72,-558.3 1606.72,-558.3"/>
<text text-anchor="middle" x="1699.53" y="-806.7" font-family="Times,serif" font-size="14.00">LessonsController</text>
<polyline fill="none" stroke="black" points="1594.72,-799.9 1804.35,-799.9 "/>
<text text-anchor="start" x="1602.72" y="-781.9" font-family="Times,serif" font-size="14.00">_one_time_conditions_valid_152?</text>
<text text-anchor="start" x="1602.72" y="-765.1" font-family="Times,serif" font-size="14.00">_one_time_conditions_valid_154?</text>
<text text-anchor="start" x="1602.72" y="-748.3" font-family="Times,serif" font-size="14.00">_one_time_conditions_valid_158?</text>
<text text-anchor="start" x="1602.72" y="-731.5" font-family="Times,serif" font-size="14.00">create</text>
<text text-anchor="start" x="1602.72" y="-714.7" font-family="Times,serif" font-size="14.00">destroy</text>
<text text-anchor="start" x="1602.72" y="-697.9" font-family="Times,serif" font-size="14.00">new</text>
<text text-anchor="start" x="1602.72" y="-681.1" font-family="Times,serif" font-size="14.00">show</text>
<text text-anchor="start" x="1602.72" y="-664.3" font-family="Times,serif" font-size="14.00">update</text>
<polyline fill="none" stroke="black" points="1594.72,-657.5 1804.35,-657.5 "/>
<polyline fill="none" stroke="black" points="1594.72,-633.5 1804.35,-633.5 "/>
<text text-anchor="start" x="1602.72" y="-615.5" font-family="Times,serif" font-size="14.00">_layout</text>
<text text-anchor="start" x="1602.72" y="-598.7" font-family="Times,serif" font-size="14.00">find_lesson</text>
<text text-anchor="start" x="1602.72" y="-581.9" font-family="Times,serif" font-size="14.00">find_unit</text>
<text text-anchor="start" x="1602.72" y="-565.1" font-family="Times,serif" font-size="14.00">get_lookups</text>
</g>
<!-- ApplicationController&#45;&gt;LessonsController -->
<g id="edge14" class="edge"><title>ApplicationController&#45;&gt;LessonsController</title>
<path fill="none" stroke="black" d="M1001.57,-896.52C1153.95,-851.76 1440.09,-767.707 1594.44,-722.369"/>
</g>
<!-- LookupsController -->
<g id="node10" class="node"><title>LookupsController</title>
<polyline fill="none" stroke="black" points="215.953,-699.312 314.498,-699.312 "/>
<path fill="none" stroke="black" d="M314.498,-699.312C320.498,-699.312 326.498,-705.312 326.498,-711.312"/>
<polyline fill="none" stroke="black" points="326.498,-711.312 326.498,-886.512 "/>
<path fill="none" stroke="black" d="M326.498,-886.512C326.498,-892.512 320.498,-898.512 314.498,-898.512"/>
<polyline fill="none" stroke="black" points="314.498,-898.512 215.953,-898.512 "/>
<path fill="none" stroke="black" d="M215.953,-898.512C209.953,-898.512 203.953,-892.512 203.953,-886.512"/>
<polyline fill="none" stroke="black" points="203.953,-886.512 203.953,-711.312 "/>
<path fill="none" stroke="black" d="M203.953,-711.312C203.953,-705.312 209.953,-699.312 215.953,-699.312"/>
<text text-anchor="middle" x="265.225" y="-880.512" font-family="Times,serif" font-size="14.00">LookupsController</text>
<polyline fill="none" stroke="black" points="203.953,-873.712 326.498,-873.712 "/>
<text text-anchor="start" x="211.953" y="-855.712" font-family="Times,serif" font-size="14.00">create</text>
<text text-anchor="start" x="211.953" y="-838.912" font-family="Times,serif" font-size="14.00">destroy</text>
<text text-anchor="start" x="211.953" y="-822.112" font-family="Times,serif" font-size="14.00">edit</text>
<text text-anchor="start" x="211.953" y="-805.312" font-family="Times,serif" font-size="14.00">index</text>
<text text-anchor="start" x="211.953" y="-788.512" font-family="Times,serif" font-size="14.00">new</text>
<text text-anchor="start" x="211.953" y="-771.712" font-family="Times,serif" font-size="14.00">show</text>
<text text-anchor="start" x="211.953" y="-754.912" font-family="Times,serif" font-size="14.00">update</text>
<polyline fill="none" stroke="black" points="203.953,-748.112 326.498,-748.112 "/>
<polyline fill="none" stroke="black" points="203.953,-724.112 326.498,-724.112 "/>
<text text-anchor="start" x="211.953" y="-706.112" font-family="Times,serif" font-size="14.00">_layout</text>
</g>
<!-- ApplicationController&#45;&gt;LookupsController -->
<g id="edge16" class="edge"><title>ApplicationController&#45;&gt;LookupsController</title>
<path fill="none" stroke="black" d="M798.266,-905.978C665.198,-879.25 436.031,-833.219 326.712,-811.262"/>
</g>
<!-- MediaCatagoriesController -->
<g id="node11" class="node"><title>MediaCatagoriesController</title>
<polyline fill="none" stroke="black" points="992.823,-34.5535 1138,-34.5535 "/>
<path fill="none" stroke="black" d="M1138,-34.5535C1144,-34.5535 1150,-40.5535 1150,-46.5535"/>
<polyline fill="none" stroke="black" points="1150,-46.5535 1150,-221.754 "/>
<path fill="none" stroke="black" d="M1150,-221.754C1150,-227.754 1144,-233.754 1138,-233.754"/>
<polyline fill="none" stroke="black" points="1138,-233.754 992.823,-233.754 "/>
<path fill="none" stroke="black" d="M992.823,-233.754C986.823,-233.754 980.823,-227.754 980.823,-221.754"/>
<polyline fill="none" stroke="black" points="980.823,-221.754 980.823,-46.5535 "/>
<path fill="none" stroke="black" d="M980.823,-46.5535C980.823,-40.5535 986.823,-34.5535 992.823,-34.5535"/>
<text text-anchor="middle" x="1065.41" y="-215.754" font-family="Times,serif" font-size="14.00">MediaCatagoriesController</text>
<polyline fill="none" stroke="black" points="980.823,-208.954 1150,-208.954 "/>
<text text-anchor="start" x="988.823" y="-190.954" font-family="Times,serif" font-size="14.00">create</text>
<text text-anchor="start" x="988.823" y="-174.154" font-family="Times,serif" font-size="14.00">destroy</text>
<text text-anchor="start" x="988.823" y="-157.354" font-family="Times,serif" font-size="14.00">edit</text>
<text text-anchor="start" x="988.823" y="-140.554" font-family="Times,serif" font-size="14.00">index</text>
<text text-anchor="start" x="988.823" y="-123.754" font-family="Times,serif" font-size="14.00">new</text>
<text text-anchor="start" x="988.823" y="-106.954" font-family="Times,serif" font-size="14.00">show</text>
<text text-anchor="start" x="988.823" y="-90.1535" font-family="Times,serif" font-size="14.00">update</text>
<polyline fill="none" stroke="black" points="980.823,-83.3535 1150,-83.3535 "/>
<polyline fill="none" stroke="black" points="980.823,-59.3535 1150,-59.3535 "/>
<text text-anchor="start" x="988.823" y="-41.3535" font-family="Times,serif" font-size="14.00">_layout</text>
</g>
<!-- ApplicationController&#45;&gt;MediaCatagoriesController -->
<g id="edge18" class="edge"><title>ApplicationController&#45;&gt;MediaCatagoriesController</title>
<path fill="none" stroke="black" d="M910.175,-877.13C936.874,-749.346 1008.76,-405.277 1044.57,-233.931"/>
</g>
<!-- MediaController -->
<g id="node12" class="node"><title>MediaController</title>
<polyline fill="none" stroke="black" points="424.17,-239.894 609.805,-239.894 "/>
<path fill="none" stroke="black" d="M609.805,-239.894C615.805,-239.894 621.805,-245.894 621.805,-251.894"/>
<polyline fill="none" stroke="black" points="621.805,-251.894 621.805,-460.694 "/>
<path fill="none" stroke="black" d="M621.805,-460.694C621.805,-466.694 615.805,-472.694 609.805,-472.694"/>
<polyline fill="none" stroke="black" points="609.805,-472.694 424.17,-472.694 "/>
<path fill="none" stroke="black" d="M424.17,-472.694C418.17,-472.694 412.17,-466.694 412.17,-460.694"/>
<polyline fill="none" stroke="black" points="412.17,-460.694 412.17,-251.894 "/>
<path fill="none" stroke="black" d="M412.17,-251.894C412.17,-245.894 418.17,-239.894 424.17,-239.894"/>
<text text-anchor="middle" x="516.988" y="-454.694" font-family="Times,serif" font-size="14.00">MediaController</text>
<polyline fill="none" stroke="black" points="412.17,-447.894 621.805,-447.894 "/>
<text text-anchor="start" x="420.17" y="-429.894" font-family="Times,serif" font-size="14.00">_one_time_conditions_valid_202?</text>
<text text-anchor="start" x="420.17" y="-413.094" font-family="Times,serif" font-size="14.00">_one_time_conditions_valid_204?</text>
<text text-anchor="start" x="420.17" y="-396.294" font-family="Times,serif" font-size="14.00">create</text>
<text text-anchor="start" x="420.17" y="-379.494" font-family="Times,serif" font-size="14.00">destroy</text>
<text text-anchor="start" x="420.17" y="-362.694" font-family="Times,serif" font-size="14.00">new</text>
<text text-anchor="start" x="420.17" y="-345.894" font-family="Times,serif" font-size="14.00">show</text>
<text text-anchor="start" x="420.17" y="-329.094" font-family="Times,serif" font-size="14.00">update</text>
<polyline fill="none" stroke="black" points="412.17,-322.294 621.805,-322.294 "/>
<polyline fill="none" stroke="black" points="412.17,-298.294 621.805,-298.294 "/>
<text text-anchor="start" x="420.17" y="-280.294" font-family="Times,serif" font-size="14.00">_layout</text>
<text text-anchor="start" x="420.17" y="-263.494" font-family="Times,serif" font-size="14.00">find_media</text>
<text text-anchor="start" x="420.17" y="-246.694" font-family="Times,serif" font-size="14.00">find_media_catagory</text>
</g>
<!-- ApplicationController&#45;&gt;MediaController -->
<g id="edge20" class="edge"><title>ApplicationController&#45;&gt;MediaController</title>
<path fill="none" stroke="black" d="M866.574,-876.794C806.531,-787.397 678.662,-597.012 595.342,-472.956"/>
</g>
<!-- SentencesController -->
<g id="node13" class="node"><title>SentencesController</title>
<polyline fill="none" stroke="black" points="11.6189,-983.373 117.143,-983.373 "/>
<path fill="none" stroke="black" d="M117.143,-983.373C123.143,-983.373 129.143,-989.373 129.143,-995.373"/>
<polyline fill="none" stroke="black" points="129.143,-995.373 129.143,-1170.57 "/>
<path fill="none" stroke="black" d="M129.143,-1170.57C129.143,-1176.57 123.143,-1182.57 117.143,-1182.57"/>
<polyline fill="none" stroke="black" points="117.143,-1182.57 11.6189,-1182.57 "/>
<path fill="none" stroke="black" d="M11.6189,-1182.57C5.6189,-1182.57 -0.381104,-1176.57 -0.381104,-1170.57"/>
<polyline fill="none" stroke="black" points="-0.381104,-1170.57 -0.381104,-995.373 "/>
<path fill="none" stroke="black" d="M-0.381104,-995.373C-0.381104,-989.373 5.6189,-983.373 11.6189,-983.373"/>
<text text-anchor="middle" x="64.3811" y="-1164.57" font-family="Times,serif" font-size="14.00">SentencesController</text>
<polyline fill="none" stroke="black" points="-0.381104,-1157.77 129.143,-1157.77 "/>
<text text-anchor="start" x="7.6189" y="-1139.77" font-family="Times,serif" font-size="14.00">create</text>
<text text-anchor="start" x="7.6189" y="-1122.97" font-family="Times,serif" font-size="14.00">destroy</text>
<text text-anchor="start" x="7.6189" y="-1106.17" font-family="Times,serif" font-size="14.00">edit</text>
<text text-anchor="start" x="7.6189" y="-1089.37" font-family="Times,serif" font-size="14.00">index</text>
<text text-anchor="start" x="7.6189" y="-1072.57" font-family="Times,serif" font-size="14.00">new</text>
<text text-anchor="start" x="7.6189" y="-1055.77" font-family="Times,serif" font-size="14.00">show</text>
<text text-anchor="start" x="7.6189" y="-1038.97" font-family="Times,serif" font-size="14.00">update</text>
<polyline fill="none" stroke="black" points="-0.381104,-1032.17 129.143,-1032.17 "/>
<polyline fill="none" stroke="black" points="-0.381104,-1008.17 129.143,-1008.17 "/>
<text text-anchor="start" x="7.6189" y="-990.173" font-family="Times,serif" font-size="14.00">_layout</text>
</g>
<!-- ApplicationController&#45;&gt;SentencesController -->
<g id="edge22" class="edge"><title>ApplicationController&#45;&gt;SentencesController</title>
<path fill="none" stroke="black" d="M798.27,-945.432C624.314,-978.034 274.234,-1043.64 129.398,-1070.79"/>
</g>
<!-- TagsController -->
<g id="node14" class="node"><title>TagsController</title>
<polyline fill="none" stroke="black" points="1691.74,-970.301 1767.52,-970.301 "/>
<path fill="none" stroke="black" d="M1767.52,-970.301C1773.52,-970.301 1779.52,-976.301 1779.52,-982.301"/>
<polyline fill="none" stroke="black" points="1779.52,-982.301 1779.52,-1157.5 "/>
<path fill="none" stroke="black" d="M1779.52,-1157.5C1779.52,-1163.5 1773.52,-1169.5 1767.52,-1169.5"/>
<polyline fill="none" stroke="black" points="1767.52,-1169.5 1691.74,-1169.5 "/>
<path fill="none" stroke="black" d="M1691.74,-1169.5C1685.74,-1169.5 1679.74,-1163.5 1679.74,-1157.5"/>
<polyline fill="none" stroke="black" points="1679.74,-1157.5 1679.74,-982.301 "/>
<path fill="none" stroke="black" d="M1679.74,-982.301C1679.74,-976.301 1685.74,-970.301 1691.74,-970.301"/>
<text text-anchor="middle" x="1729.63" y="-1151.5" font-family="Times,serif" font-size="14.00">TagsController</text>
<polyline fill="none" stroke="black" points="1679.74,-1144.7 1779.52,-1144.7 "/>
<text text-anchor="start" x="1687.74" y="-1126.7" font-family="Times,serif" font-size="14.00">create</text>
<text text-anchor="start" x="1687.74" y="-1109.9" font-family="Times,serif" font-size="14.00">destroy</text>
<text text-anchor="start" x="1687.74" y="-1093.1" font-family="Times,serif" font-size="14.00">edit</text>
<text text-anchor="start" x="1687.74" y="-1076.3" font-family="Times,serif" font-size="14.00">index</text>
<text text-anchor="start" x="1687.74" y="-1059.5" font-family="Times,serif" font-size="14.00">new</text>
<text text-anchor="start" x="1687.74" y="-1042.7" font-family="Times,serif" font-size="14.00">show</text>
<text text-anchor="start" x="1687.74" y="-1025.9" font-family="Times,serif" font-size="14.00">update</text>
<polyline fill="none" stroke="black" points="1679.74,-1019.1 1779.52,-1019.1 "/>
<polyline fill="none" stroke="black" points="1679.74,-995.101 1779.52,-995.101 "/>
<text text-anchor="start" x="1687.74" y="-977.101" font-family="Times,serif" font-size="14.00">_layout</text>
</g>
<!-- ApplicationController&#45;&gt;TagsController -->
<g id="edge24" class="edge"><title>ApplicationController&#45;&gt;TagsController</title>
<path fill="none" stroke="black" d="M1001.21,-943.914C1180.19,-974.871 1545.99,-1038.14 1679.46,-1061.22"/>
</g>
<!-- UnitLayoutsController -->
<g id="node15" class="node"><title>UnitLayoutsController</title>
<polyline fill="none" stroke="black" points="1301.45,-1499.55 1487.09,-1499.55 "/>
<path fill="none" stroke="black" d="M1487.09,-1499.55C1493.09,-1499.55 1499.09,-1505.55 1499.09,-1511.55"/>
<polyline fill="none" stroke="black" points="1499.09,-1511.55 1499.09,-1753.95 "/>
<path fill="none" stroke="black" d="M1499.09,-1753.95C1499.09,-1759.95 1493.09,-1765.95 1487.09,-1765.95"/>
<polyline fill="none" stroke="black" points="1487.09,-1765.95 1301.45,-1765.95 "/>
<path fill="none" stroke="black" d="M1301.45,-1765.95C1295.45,-1765.95 1289.45,-1759.95 1289.45,-1753.95"/>
<polyline fill="none" stroke="black" points="1289.45,-1753.95 1289.45,-1511.55 "/>
<path fill="none" stroke="black" d="M1289.45,-1511.55C1289.45,-1505.55 1295.45,-1499.55 1301.45,-1499.55"/>
<text text-anchor="middle" x="1394.27" y="-1747.95" font-family="Times,serif" font-size="14.00">UnitLayoutsController</text>
<polyline fill="none" stroke="black" points="1289.45,-1741.15 1499.09,-1741.15 "/>
<text text-anchor="start" x="1297.45" y="-1723.15" font-family="Times,serif" font-size="14.00">_one_time_conditions_valid_310?</text>
<text text-anchor="start" x="1297.45" y="-1706.35" font-family="Times,serif" font-size="14.00">_one_time_conditions_valid_312?</text>
<text text-anchor="start" x="1297.45" y="-1689.55" font-family="Times,serif" font-size="14.00">_one_time_conditions_valid_316?</text>
<text text-anchor="start" x="1297.45" y="-1672.75" font-family="Times,serif" font-size="14.00">create</text>
<text text-anchor="start" x="1297.45" y="-1655.95" font-family="Times,serif" font-size="14.00">destroy</text>
<text text-anchor="start" x="1297.45" y="-1639.15" font-family="Times,serif" font-size="14.00">new</text>
<text text-anchor="start" x="1297.45" y="-1622.35" font-family="Times,serif" font-size="14.00">show</text>
<text text-anchor="start" x="1297.45" y="-1605.55" font-family="Times,serif" font-size="14.00">update</text>
<polyline fill="none" stroke="black" points="1289.45,-1598.75 1499.09,-1598.75 "/>
<polyline fill="none" stroke="black" points="1289.45,-1574.75 1499.09,-1574.75 "/>
<text text-anchor="start" x="1297.45" y="-1556.75" font-family="Times,serif" font-size="14.00">_layout</text>
<text text-anchor="start" x="1297.45" y="-1539.95" font-family="Times,serif" font-size="14.00">find_unit</text>
<text text-anchor="start" x="1297.45" y="-1523.15" font-family="Times,serif" font-size="14.00">find_unit_layout</text>
<text text-anchor="start" x="1297.45" y="-1506.35" font-family="Times,serif" font-size="14.00">get_lookups</text>
</g>
<!-- ApplicationController&#45;&gt;UnitLayoutsController -->
<g id="edge26" class="edge"><title>ApplicationController&#45;&gt;UnitLayoutsController</title>
<path fill="none" stroke="black" d="M934.451,-975.778C1009.54,-1083.06 1189.7,-1340.47 1300.92,-1499.37"/>
</g>
<!-- UnitsController -->
<g id="node16" class="node"><title>UnitsController</title>
<polyline fill="none" stroke="black" points="706.632,-1624.75 892.267,-1624.75 "/>
<path fill="none" stroke="black" d="M892.267,-1624.75C898.267,-1624.75 904.267,-1630.75 904.267,-1636.75"/>
<polyline fill="none" stroke="black" points="904.267,-1636.75 904.267,-1879.15 "/>
<path fill="none" stroke="black" d="M904.267,-1879.15C904.267,-1885.15 898.267,-1891.15 892.267,-1891.15"/>
<polyline fill="none" stroke="black" points="892.267,-1891.15 706.632,-1891.15 "/>
<path fill="none" stroke="black" d="M706.632,-1891.15C700.632,-1891.15 694.632,-1885.15 694.632,-1879.15"/>
<polyline fill="none" stroke="black" points="694.632,-1879.15 694.632,-1636.75 "/>
<path fill="none" stroke="black" d="M694.632,-1636.75C694.632,-1630.75 700.632,-1624.75 706.632,-1624.75"/>
<text text-anchor="middle" x="799.449" y="-1873.15" font-family="Times,serif" font-size="14.00">UnitsController</text>
<polyline fill="none" stroke="black" points="694.632,-1866.35 904.267,-1866.35 "/>
<text text-anchor="start" x="702.632" y="-1848.35" font-family="Times,serif" font-size="14.00">_one_time_conditions_valid_336?</text>
<text text-anchor="start" x="702.632" y="-1831.55" font-family="Times,serif" font-size="14.00">_one_time_conditions_valid_338?</text>
<text text-anchor="start" x="702.632" y="-1814.75" font-family="Times,serif" font-size="14.00">_one_time_conditions_valid_342?</text>
<text text-anchor="start" x="702.632" y="-1797.95" font-family="Times,serif" font-size="14.00">create</text>
<text text-anchor="start" x="702.632" y="-1781.15" font-family="Times,serif" font-size="14.00">destroy</text>
<text text-anchor="start" x="702.632" y="-1764.35" font-family="Times,serif" font-size="14.00">new</text>
<text text-anchor="start" x="702.632" y="-1747.55" font-family="Times,serif" font-size="14.00">show</text>
<text text-anchor="start" x="702.632" y="-1730.75" font-family="Times,serif" font-size="14.00">update</text>
<polyline fill="none" stroke="black" points="694.632,-1723.95 904.267,-1723.95 "/>
<polyline fill="none" stroke="black" points="694.632,-1699.95 904.267,-1699.95 "/>
<text text-anchor="start" x="702.632" y="-1681.95" font-family="Times,serif" font-size="14.00">_layout</text>
<text text-anchor="start" x="702.632" y="-1665.15" font-family="Times,serif" font-size="14.00">find_course</text>
<text text-anchor="start" x="702.632" y="-1648.35" font-family="Times,serif" font-size="14.00">find_unit</text>
<text text-anchor="start" x="702.632" y="-1631.55" font-family="Times,serif" font-size="14.00">get_lookups</text>
</g>
<!-- ApplicationController&#45;&gt;UnitsController -->
<g id="edge28" class="edge"><title>ApplicationController&#45;&gt;UnitsController</title>
<path fill="none" stroke="black" d="M893.939,-975.609C878.79,-1101.04 838.33,-1436.03 815.572,-1624.46"/>
</g>
<!-- UsersController -->
<g id="node17" class="node"><title>UsersController</title>
<polyline fill="none" stroke="black" points="1269.82,-467.053 1351.25,-467.053 "/>
<path fill="none" stroke="black" d="M1351.25,-467.053C1357.25,-467.053 1363.25,-473.053 1363.25,-479.053"/>
<polyline fill="none" stroke="black" points="1363.25,-479.053 1363.25,-654.253 "/>
<path fill="none" stroke="black" d="M1363.25,-654.253C1363.25,-660.253 1357.25,-666.253 1351.25,-666.253"/>
<polyline fill="none" stroke="black" points="1351.25,-666.253 1269.82,-666.253 "/>
<path fill="none" stroke="black" d="M1269.82,-666.253C1263.82,-666.253 1257.82,-660.253 1257.82,-654.253"/>
<polyline fill="none" stroke="black" points="1257.82,-654.253 1257.82,-479.053 "/>
<path fill="none" stroke="black" d="M1257.82,-479.053C1257.82,-473.053 1263.82,-467.053 1269.82,-467.053"/>
<text text-anchor="middle" x="1310.54" y="-648.253" font-family="Times,serif" font-size="14.00">UsersController</text>
<polyline fill="none" stroke="black" points="1257.82,-641.453 1363.25,-641.453 "/>
<text text-anchor="start" x="1265.82" y="-623.453" font-family="Times,serif" font-size="14.00">create</text>
<text text-anchor="start" x="1265.82" y="-606.653" font-family="Times,serif" font-size="14.00">destroy</text>
<text text-anchor="start" x="1265.82" y="-589.853" font-family="Times,serif" font-size="14.00">edit</text>
<text text-anchor="start" x="1265.82" y="-573.053" font-family="Times,serif" font-size="14.00">index</text>
<text text-anchor="start" x="1265.82" y="-556.253" font-family="Times,serif" font-size="14.00">new</text>
<text text-anchor="start" x="1265.82" y="-539.453" font-family="Times,serif" font-size="14.00">show</text>
<text text-anchor="start" x="1265.82" y="-522.653" font-family="Times,serif" font-size="14.00">update</text>
<polyline fill="none" stroke="black" points="1257.82,-515.853 1363.25,-515.853 "/>
<polyline fill="none" stroke="black" points="1257.82,-491.853 1363.25,-491.853 "/>
<text text-anchor="start" x="1265.82" y="-473.853" font-family="Times,serif" font-size="14.00">_layout</text>
</g>
<!-- ApplicationController&#45;&gt;UsersController -->
<g id="edge30" class="edge"><title>ApplicationController&#45;&gt;UsersController</title>
<path fill="none" stroke="black" d="M956.122,-877.123C1035.64,-807.464 1179.89,-681.105 1257.58,-613.046"/>
</g>
<!-- WordsController -->
<g id="node18" class="node"><title>WordsController</title>
<polyline fill="none" stroke="black" points="1420.63,-167.452 1506.38,-167.452 "/>
<path fill="none" stroke="black" d="M1506.38,-167.452C1512.38,-167.452 1518.38,-173.452 1518.38,-179.452"/>
<polyline fill="none" stroke="black" points="1518.38,-179.452 1518.38,-354.652 "/>
<path fill="none" stroke="black" d="M1518.38,-354.652C1518.38,-360.652 1512.38,-366.652 1506.38,-366.652"/>
<polyline fill="none" stroke="black" points="1506.38,-366.652 1420.63,-366.652 "/>
<path fill="none" stroke="black" d="M1420.63,-366.652C1414.63,-366.652 1408.63,-360.652 1408.63,-354.652"/>
<polyline fill="none" stroke="black" points="1408.63,-354.652 1408.63,-179.452 "/>
<path fill="none" stroke="black" d="M1408.63,-179.452C1408.63,-173.452 1414.63,-167.452 1420.63,-167.452"/>
<text text-anchor="middle" x="1463.51" y="-348.652" font-family="Times,serif" font-size="14.00">WordsController</text>
<polyline fill="none" stroke="black" points="1408.63,-341.852 1518.38,-341.852 "/>
<text text-anchor="start" x="1416.63" y="-323.852" font-family="Times,serif" font-size="14.00">create</text>
<text text-anchor="start" x="1416.63" y="-307.052" font-family="Times,serif" font-size="14.00">destroy</text>
<text text-anchor="start" x="1416.63" y="-290.252" font-family="Times,serif" font-size="14.00">edit</text>
<text text-anchor="start" x="1416.63" y="-273.452" font-family="Times,serif" font-size="14.00">index</text>
<text text-anchor="start" x="1416.63" y="-256.652" font-family="Times,serif" font-size="14.00">new</text>
<text text-anchor="start" x="1416.63" y="-239.852" font-family="Times,serif" font-size="14.00">show</text>
<text text-anchor="start" x="1416.63" y="-223.052" font-family="Times,serif" font-size="14.00">update</text>
<polyline fill="none" stroke="black" points="1408.63,-216.252 1518.38,-216.252 "/>
<polyline fill="none" stroke="black" points="1408.63,-192.252 1518.38,-192.252 "/>
<text text-anchor="start" x="1416.63" y="-174.252" font-family="Times,serif" font-size="14.00">_layout</text>
</g>
<!-- ApplicationController&#45;&gt;WordsController -->
<g id="edge32" class="edge"><title>ApplicationController&#45;&gt;WordsController</title>
<path fill="none" stroke="black" d="M933.712,-877.09C994.154,-790.25 1126.4,-605.777 1254.62,-463.853 1303.56,-409.691 1364.89,-353.069 1408.41,-314.54"/>
</g>
</g>
</svg>
