<?xml version="1.0" encoding="UTF-8" standalone="no"?>
<!DOCTYPE svg PUBLIC "-//W3C//DTD SVG 1.1//EN"
 "http://www.w3.org/Graphics/SVG/1.1/DTD/svg11.dtd">
<!-- Generated by graphviz version 2.28.0 (20121028.1614)
 -->
<!-- Title: models_diagram Pages: 1 -->
<svg width="1322pt" height="382pt"
 viewBox="0.00 0.00 1322.00 382.00" xmlns="http://www.w3.org/2000/svg" xmlns:xlink="http://www.w3.org/1999/xlink">
<g id="graph1" class="graph" transform="scale(1 1) rotate(0) translate(4 378)">
<title>models_diagram</title>
<polygon fill="white" stroke="white" points="-4,5 -4,-378 1319,-378 1319,5 -4,5"/>
<!-- _diagram_info -->
<g id="node1" class="node"><title>_diagram_info</title>
<text text-anchor="start" x="7.31226" y="-357" font-family="Times,serif" font-size="13.00">Models diagram</text>
<text text-anchor="start" x="7.31226" y="-341.4" font-family="Times,serif" font-size="13.00">Date: Oct 30 2012 &#45; 14:37</text>
<text text-anchor="start" x="7.31226" y="-325.8" font-family="Times,serif" font-size="13.00">Migration version: 20121029200128</text>
<text text-anchor="start" x="7.31226" y="-310.2" font-family="Times,serif" font-size="13.00">Generated by RailRoady 1.1.0</text>
<text text-anchor="start" x="7.31226" y="-294.6" font-family="Times,serif" font-size="13.00">http://railroady.prestonlee.com</text>
</g>
<!-- Course -->
<g id="node2" class="node"><title>Course</title>
<ellipse fill="none" stroke="black" cx="263" cy="-331" rx="38.0929" ry="18"/>
<text text-anchor="middle" x="263" y="-325.4" font-family="Times,serif" font-size="14.00">Course</text>
</g>
<!-- Unit -->
<g id="node14" class="node"><title>Unit</title>
<ellipse fill="none" stroke="black" cx="263" cy="-234" rx="28.3082" ry="18"/>
<text text-anchor="middle" x="263" y="-228.4" font-family="Times,serif" font-size="14.00">Unit</text>
</g>
<!-- Course&#45;&gt;Unit -->
<g id="edge2" class="edge"><title>Course&#45;&gt;Unit</title>
<path fill="none" stroke="#2a77af" d="M263,-304.414C263,-291.518 263,-275.862 263,-262.685"/>
<ellipse fill="none" stroke="#2a77af" cx="263" cy="-308.576" rx="4" ry="4"/>
<polygon fill="#2a77af" stroke="#2a77af" points="263,-262.314 267.5,-252.314 263,-257.314 263,-252.314 263,-252.314 263,-252.314 263,-257.314 258.5,-252.314 263,-262.314 263,-262.314"/>
</g>
<!-- LayoutField -->
<g id="node3" class="node"><title>LayoutField</title>
<ellipse fill="none" stroke="black" cx="264" cy="-18" rx="58.3626" ry="18"/>
<text text-anchor="middle" x="264" y="-12.4" font-family="Times,serif" font-size="14.00">LayoutField</text>
</g>
<!-- LayoutTable -->
<g id="node4" class="node"><title>LayoutTable</title>
<ellipse fill="none" stroke="black" cx="401" cy="-18" rx="59.5472" ry="18"/>
<text text-anchor="middle" x="401" y="-12.4" font-family="Times,serif" font-size="14.00">LayoutTable</text>
</g>
<!-- Lesson -->
<g id="node5" class="node"><title>Lesson</title>
<ellipse fill="none" stroke="black" cx="263" cy="-162" rx="38.0929" ry="18"/>
<text text-anchor="middle" x="263" y="-156.4" font-family="Times,serif" font-size="14.00">Lesson</text>
</g>
<!-- LessonLayout -->
<g id="node6" class="node"><title>LessonLayout</title>
<ellipse fill="none" stroke="black" cx="263" cy="-90" rx="65.6218" ry="18"/>
<text text-anchor="middle" x="263" y="-84.4" font-family="Times,serif" font-size="14.00">LessonLayout</text>
</g>
<!-- Lesson&#45;&gt;LessonLayout -->
<g id="edge4" class="edge"><title>Lesson&#45;&gt;LessonLayout</title>
<path fill="none" stroke="#a5245b" d="M263,-135.64C263,-130.063 263,-124.132 263,-118.476"/>
<ellipse fill="none" stroke="#a5245b" cx="263" cy="-139.697" rx="4" ry="4"/>
<polygon fill="#a5245b" stroke="#a5245b" points="263,-118.104 267.5,-108.104 263,-113.104 263,-108.104 263,-108.104 263,-108.104 263,-113.104 258.5,-108.104 263,-118.104 263,-118.104"/>
</g>
<!-- LessonLayout&#45;&gt;LayoutField -->
<g id="edge6" class="edge"><title>LessonLayout&#45;&gt;LayoutField</title>
<path fill="none" stroke="#d2b150" d="M263.362,-63.6398C263.442,-58.0629 263.527,-52.1319 263.607,-46.4761"/>
<ellipse fill="none" stroke="#d2b150" cx="263.304" cy="-67.697" rx="4" ry="4"/>
<polygon fill="#d2b150" stroke="#d2b150" points="263.613,-46.1033 268.255,-36.1687 263.684,-41.1038 263.756,-36.1043 263.756,-36.1043 263.756,-36.1043 263.684,-41.1038 259.256,-36.04 263.613,-46.1033 263.613,-46.1033"/>
</g>
<!-- LessonLayout&#45;&gt;LayoutTable -->
<g id="edge8" class="edge"><title>LessonLayout&#45;&gt;LayoutTable</title>
<path fill="none" stroke="#b34aa8" d="M300.3,-70.0795C319.543,-60.319 342.987,-48.4268 362.412,-38.5737"/>
<ellipse fill="none" stroke="#b34aa8" cx="296.511" cy="-72.0015" rx="4.00002" ry="4.00002"/>
<polygon fill="#b34aa8" stroke="#b34aa8" points="362.67,-38.4427 373.624,-37.9321 367.129,-36.1807 371.589,-33.9188 371.589,-33.9188 371.589,-33.9188 367.129,-36.1807 369.553,-29.9056 362.67,-38.4427 362.67,-38.4427"/>
</g>
<!-- Lookup -->
<g id="node7" class="node"><title>Lookup</title>
<ellipse fill="none" stroke="black" cx="360" cy="-331" rx="41.1166" ry="18"/>
<text text-anchor="middle" x="360" y="-325.4" font-family="Times,serif" font-size="14.00">Lookup</text>
</g>
<!-- Media -->
<g id="node8" class="node"><title>Media</title>
<ellipse fill="none" stroke="black" cx="455" cy="-331" rx="35.5596" ry="18"/>
<text text-anchor="middle" x="455" y="-325.4" font-family="Times,serif" font-size="14.00">Media</text>
</g>
<!-- MediaCatagory -->
<g id="node9" class="node"><title>MediaCatagory</title>
<ellipse fill="none" stroke="black" cx="580" cy="-331" rx="71.1572" ry="18"/>
<text text-anchor="middle" x="580" y="-325.4" font-family="Times,serif" font-size="14.00">MediaCatagory</text>
</g>
<!-- Sentence -->
<g id="node10" class="node"><title>Sentence</title>
<ellipse fill="none" stroke="black" cx="715" cy="-331" rx="45.3394" ry="18"/>
<text text-anchor="middle" x="715" y="-325.4" font-family="Times,serif" font-size="14.00">Sentence</text>
</g>
<!-- SentenceTag -->
<g id="node11" class="node"><title>SentenceTag</title>
<ellipse fill="none" stroke="black" cx="839" cy="-331" rx="60.3474" ry="18"/>
<text text-anchor="middle" x="839" y="-325.4" font-family="Times,serif" font-size="14.00">SentenceTag</text>
</g>
<!-- SentenceWordXref -->
<g id="node12" class="node"><title>SentenceWordXref</title>
<ellipse fill="none" stroke="black" cx="1002" cy="-331" rx="84.2055" ry="18"/>
<text text-anchor="middle" x="1002" y="-325.4" font-family="Times,serif" font-size="14.00">SentenceWordXref</text>
</g>
<!-- SentenceXref -->
<g id="node13" class="node"><title>SentenceXref</title>
<ellipse fill="none" stroke="black" cx="1168" cy="-331" rx="63.3755" ry="18"/>
<text text-anchor="middle" x="1168" y="-325.4" font-family="Times,serif" font-size="14.00">SentenceXref</text>
</g>
<!-- Unit&#45;&gt;Lesson -->
<g id="edge10" class="edge"><title>Unit&#45;&gt;Lesson</title>
<path fill="none" stroke="#360fe7" d="M263,-207.64C263,-202.063 263,-196.132 263,-190.476"/>
<ellipse fill="none" stroke="#360fe7" cx="263" cy="-211.697" rx="4" ry="4"/>
<polygon fill="#360fe7" stroke="#360fe7" points="263,-190.104 267.5,-180.104 263,-185.104 263,-180.104 263,-180.104 263,-180.104 263,-185.104 258.5,-180.104 263,-190.104 263,-190.104"/>
</g>
<!-- UnitLayout -->
<g id="node15" class="node"><title>UnitLayout</title>
<ellipse fill="none" stroke="black" cx="402" cy="-90" rx="55.3374" ry="18"/>
<text text-anchor="middle" x="402" y="-84.4" font-family="Times,serif" font-size="14.00">UnitLayout</text>
</g>
<!-- UnitLayout&#45;&gt;LayoutField -->
<g id="edge12" class="edge"><title>UnitLayout&#45;&gt;LayoutField</title>
<path fill="none" stroke="#62251c" d="M366.255,-70.8684C346.599,-60.8981 322.211,-48.5275 302.183,-38.3683"/>
<ellipse fill="none" stroke="#62251c" cx="369.839" cy="-72.6864" rx="4.00002" ry="4.00002"/>
<polygon fill="#62251c" stroke="#62251c" points="301.95,-38.2501 295.068,-29.7131 297.491,-35.9882 293.032,-33.7263 293.032,-33.7263 293.032,-33.7263 297.491,-35.9882 290.996,-37.7395 301.95,-38.2501 301.95,-38.2501"/>
</g>
<!-- UnitLayout&#45;&gt;LayoutTable -->
<g id="edge14" class="edge"><title>UnitLayout&#45;&gt;LayoutTable</title>
<path fill="none" stroke="#0e9c4d" d="M401.638,-63.6398C401.558,-58.0629 401.473,-52.1319 401.393,-46.4761"/>
<ellipse fill="none" stroke="#0e9c4d" cx="401.696" cy="-67.697" rx="4" ry="4"/>
<polygon fill="#0e9c4d" stroke="#0e9c4d" points="401.387,-46.1033 405.744,-36.04 401.316,-41.1038 401.244,-36.1043 401.244,-36.1043 401.244,-36.1043 401.316,-41.1038 396.745,-36.1687 401.387,-46.1033 401.387,-46.1033"/>
</g>
<!-- Word -->
<g id="node16" class="node"><title>Word</title>
<ellipse fill="none" stroke="black" cx="1282" cy="-331" rx="31.8859" ry="18"/>
<text text-anchor="middle" x="1282" y="-325.4" font-family="Times,serif" font-size="14.00">Word</text>
</g>
</g>
</svg>
