<?xml version="1.0" encoding="UTF-8" standalone="no"?>
<!DOCTYPE svg PUBLIC "-//W3C//DTD SVG 1.1//EN"
 "http://www.w3.org/Graphics/SVG/1.1/DTD/svg11.dtd">
<!-- Generated by graphviz version 2.28.0 (20121028.1614)
 -->
<!-- Title: models_diagram Pages: 1 -->
<svg width="1657pt" height="1216pt"
 viewBox="0.00 0.00 1657.00 1216.00" xmlns="http://www.w3.org/2000/svg" xmlns:xlink="http://www.w3.org/1999/xlink">
<g id="graph1" class="graph" transform="scale(1 1) rotate(0) translate(4 1212)">
<title>models_diagram</title>
<polygon fill="white" stroke="white" points="-4,5 -4,-1212 1654,-1212 1654,5 -4,5"/>
<!-- _diagram_info -->
<g id="node1" class="node"><title>_diagram_info</title>
<text text-anchor="start" x="7.31226" y="-1116" font-family="Times,serif" font-size="13.00">Models diagram</text>
<text text-anchor="start" x="7.31226" y="-1100.4" font-family="Times,serif" font-size="13.00">Date: Oct 30 2012 &#45; 14:37</text>
<text text-anchor="start" x="7.31226" y="-1084.8" font-family="Times,serif" font-size="13.00">Migration version: 20121029200128</text>
<text text-anchor="start" x="7.31226" y="-1069.2" font-family="Times,serif" font-size="13.00">Generated by RailRoady 1.1.0</text>
<text text-anchor="start" x="7.31226" y="-1053.6" font-family="Times,serif" font-size="13.00">http://railroady.prestonlee.com</text>
</g>
<!-- Course -->
<g id="node2" class="node"><title>Course</title>
<polyline fill="none" stroke="black" points="236.326,-972.8 361.674,-972.8 "/>
<path fill="none" stroke="black" d="M361.674,-972.8C367.674,-972.8 373.674,-978.8 373.674,-984.8"/>
<polyline fill="none" stroke="black" points="373.674,-984.8 373.674,-1195.2 "/>
<path fill="none" stroke="black" d="M373.674,-1195.2C373.674,-1201.2 367.674,-1207.2 361.674,-1207.2"/>
<polyline fill="none" stroke="black" points="361.674,-1207.2 236.326,-1207.2 "/>
<path fill="none" stroke="black" d="M236.326,-1207.2C230.326,-1207.2 224.326,-1201.2 224.326,-1195.2"/>
<polyline fill="none" stroke="black" points="224.326,-1195.2 224.326,-984.8 "/>
<path fill="none" stroke="black" d="M224.326,-984.8C224.326,-978.8 230.326,-972.8 236.326,-972.8"/>
<text text-anchor="middle" x="299" y="-1189.2" font-family="Times,serif" font-size="14.00">Course</text>
<polyline fill="none" stroke="black" points="224.326,-1182.4 373.674,-1182.4 "/>
<text text-anchor="start" x="232.326" y="-1164.4" font-family="Times,serif" font-size="14.00">id :integer</text>
<text text-anchor="start" x="232.326" y="-1147.6" font-family="Times,serif" font-size="14.00">course_name :string</text>
<text text-anchor="start" x="232.326" y="-1130.8" font-family="Times,serif" font-size="14.00">course_type :string</text>
<text text-anchor="start" x="232.326" y="-1114" font-family="Times,serif" font-size="14.00">synopsis :string</text>
<text text-anchor="start" x="232.326" y="-1097.2" font-family="Times,serif" font-size="14.00">course_language :string</text>
<text text-anchor="start" x="232.326" y="-1080.4" font-family="Times,serif" font-size="14.00">status :string</text>
<text text-anchor="start" x="232.326" y="-1063.6" font-family="Times,serif" font-size="14.00">target_level :string</text>
<text text-anchor="start" x="232.326" y="-1046.8" font-family="Times,serif" font-size="14.00">owner :string</text>
<text text-anchor="start" x="232.326" y="-1030" font-family="Times,serif" font-size="14.00">description :text</text>
<text text-anchor="start" x="232.326" y="-1013.2" font-family="Times,serif" font-size="14.00">version :integer</text>
<text text-anchor="start" x="232.326" y="-996.4" font-family="Times,serif" font-size="14.00">created_at :datetime</text>
<text text-anchor="start" x="232.326" y="-979.6" font-family="Times,serif" font-size="14.00">updated_at :datetime</text>
</g>
<!-- Unit -->
<g id="node14" class="node"><title>Unit</title>
<polyline fill="none" stroke="black" points="244.495,-717.2 353.505,-717.2 "/>
<path fill="none" stroke="black" d="M353.505,-717.2C359.505,-717.2 365.505,-723.2 365.505,-729.2"/>
<polyline fill="none" stroke="black" points="365.505,-729.2 365.505,-922.8 "/>
<path fill="none" stroke="black" d="M365.505,-922.8C365.505,-928.8 359.505,-934.8 353.505,-934.8"/>
<polyline fill="none" stroke="black" points="353.505,-934.8 244.495,-934.8 "/>
<path fill="none" stroke="black" d="M244.495,-934.8C238.495,-934.8 232.495,-928.8 232.495,-922.8"/>
<polyline fill="none" stroke="black" points="232.495,-922.8 232.495,-729.2 "/>
<path fill="none" stroke="black" d="M232.495,-729.2C232.495,-723.2 238.495,-717.2 244.495,-717.2"/>
<text text-anchor="middle" x="299" y="-916.8" font-family="Times,serif" font-size="14.00">Unit</text>
<polyline fill="none" stroke="black" points="232.495,-910 365.505,-910 "/>
<text text-anchor="start" x="240.495" y="-892" font-family="Times,serif" font-size="14.00">id :integer</text>
<text text-anchor="start" x="240.495" y="-875.2" font-family="Times,serif" font-size="14.00">unit_name :string</text>
<text text-anchor="start" x="240.495" y="-858.4" font-family="Times,serif" font-size="14.00">unit_type :string</text>
<text text-anchor="start" x="240.495" y="-841.6" font-family="Times,serif" font-size="14.00">seq :integer</text>
<text text-anchor="start" x="240.495" y="-824.8" font-family="Times,serif" font-size="14.00">synopsis :string</text>
<text text-anchor="start" x="240.495" y="-808" font-family="Times,serif" font-size="14.00">status :string</text>
<text text-anchor="start" x="240.495" y="-791.2" font-family="Times,serif" font-size="14.00">description :text</text>
<text text-anchor="start" x="240.495" y="-774.4" font-family="Times,serif" font-size="14.00">version :integer</text>
<text text-anchor="start" x="240.495" y="-757.6" font-family="Times,serif" font-size="14.00">course_id :integer</text>
<text text-anchor="start" x="240.495" y="-740.8" font-family="Times,serif" font-size="14.00">created_at :datetime</text>
<text text-anchor="start" x="240.495" y="-724" font-family="Times,serif" font-size="14.00">updated_at :datetime</text>
</g>
<!-- Course&#45;&gt;Unit -->
<g id="edge2" class="edge"><title>Course&#45;&gt;Unit</title>
<path fill="none" stroke="#07698b" d="M299,-964.375C299,-958.123 299,-951.851 299,-945.617"/>
<ellipse fill="none" stroke="#07698b" cx="299" cy="-968.557" rx="4" ry="4"/>
<polygon fill="#07698b" stroke="#07698b" points="299,-945.171 303.5,-935.171 299,-940.171 299,-935.171 299,-935.171 299,-935.171 299,-940.171 294.5,-935.171 299,-945.171 299,-945.171"/>
</g>
<!-- LayoutField -->
<g id="node3" class="node"><title>LayoutField</title>
<polyline fill="none" stroke="black" points="145.429,-34.8 278.571,-34.8 "/>
<path fill="none" stroke="black" d="M278.571,-34.8C284.571,-34.8 290.571,-40.8 290.571,-46.8"/>
<polyline fill="none" stroke="black" points="290.571,-46.8 290.571,-173.2 "/>
<path fill="none" stroke="black" d="M290.571,-173.2C290.571,-179.2 284.571,-185.2 278.571,-185.2"/>
<polyline fill="none" stroke="black" points="278.571,-185.2 145.429,-185.2 "/>
<path fill="none" stroke="black" d="M145.429,-185.2C139.429,-185.2 133.429,-179.2 133.429,-173.2"/>
<polyline fill="none" stroke="black" points="133.429,-173.2 133.429,-46.8 "/>
<path fill="none" stroke="black" d="M133.429,-46.8C133.429,-40.8 139.429,-34.8 145.429,-34.8"/>
<text text-anchor="middle" x="212" y="-167.2" font-family="Times,serif" font-size="14.00">LayoutField</text>
<polyline fill="none" stroke="black" points="133.429,-160.4 290.571,-160.4 "/>
<text text-anchor="start" x="141.429" y="-142.4" font-family="Times,serif" font-size="14.00">id :integer</text>
<text text-anchor="start" x="141.429" y="-125.6" font-family="Times,serif" font-size="14.00">field_name :string</text>
<text text-anchor="start" x="141.429" y="-108.8" font-family="Times,serif" font-size="14.00">field_value :string</text>
<text text-anchor="start" x="141.429" y="-92" font-family="Times,serif" font-size="14.00">version :string</text>
<text text-anchor="start" x="141.429" y="-75.2" font-family="Times,serif" font-size="14.00">lesson_layout_id :integer</text>
<text text-anchor="start" x="141.429" y="-58.4" font-family="Times,serif" font-size="14.00">created_at :datetime</text>
<text text-anchor="start" x="141.429" y="-41.6" font-family="Times,serif" font-size="14.00">updated_at :datetime</text>
</g>
<!-- LayoutTable -->
<g id="node4" class="node"><title>LayoutTable</title>
<polyline fill="none" stroke="black" points="320.429,-1.2 453.571,-1.2 "/>
<path fill="none" stroke="black" d="M453.571,-1.2C459.571,-1.2 465.571,-7.2 465.571,-13.2"/>
<polyline fill="none" stroke="black" points="465.571,-13.2 465.571,-206.8 "/>
<path fill="none" stroke="black" d="M465.571,-206.8C465.571,-212.8 459.571,-218.8 453.571,-218.8"/>
<polyline fill="none" stroke="black" points="453.571,-218.8 320.429,-218.8 "/>
<path fill="none" stroke="black" d="M320.429,-218.8C314.429,-218.8 308.429,-212.8 308.429,-206.8"/>
<polyline fill="none" stroke="black" points="308.429,-206.8 308.429,-13.2 "/>
<path fill="none" stroke="black" d="M308.429,-13.2C308.429,-7.2 314.429,-1.2 320.429,-1.2"/>
<text text-anchor="middle" x="387" y="-200.8" font-family="Times,serif" font-size="14.00">LayoutTable</text>
<polyline fill="none" stroke="black" points="308.429,-194 465.571,-194 "/>
<text text-anchor="start" x="316.429" y="-176" font-family="Times,serif" font-size="14.00">id :integer</text>
<text text-anchor="start" x="316.429" y="-159.2" font-family="Times,serif" font-size="14.00">table_number :integer</text>
<text text-anchor="start" x="316.429" y="-142.4" font-family="Times,serif" font-size="14.00">row_num :integer</text>
<text text-anchor="start" x="316.429" y="-125.6" font-family="Times,serif" font-size="14.00">col1 :string</text>
<text text-anchor="start" x="316.429" y="-108.8" font-family="Times,serif" font-size="14.00">col2 :string</text>
<text text-anchor="start" x="316.429" y="-92" font-family="Times,serif" font-size="14.00">col3 :string</text>
<text text-anchor="start" x="316.429" y="-75.2" font-family="Times,serif" font-size="14.00">col4 :string</text>
<text text-anchor="start" x="316.429" y="-58.4" font-family="Times,serif" font-size="14.00">version :integer</text>
<text text-anchor="start" x="316.429" y="-41.6" font-family="Times,serif" font-size="14.00">lesson_layout_id :integer</text>
<text text-anchor="start" x="316.429" y="-24.8" font-family="Times,serif" font-size="14.00">created_at :datetime</text>
<text text-anchor="start" x="316.429" y="-8" font-family="Times,serif" font-size="14.00">updated_at :datetime</text>
</g>
<!-- Lesson -->
<g id="node5" class="node"><title>Lesson</title>
<polyline fill="none" stroke="black" points="244.495,-461.2 353.505,-461.2 "/>
<path fill="none" stroke="black" d="M353.505,-461.2C359.505,-461.2 365.505,-467.2 365.505,-473.2"/>
<polyline fill="none" stroke="black" points="365.505,-473.2 365.505,-666.8 "/>
<path fill="none" stroke="black" d="M365.505,-666.8C365.505,-672.8 359.505,-678.8 353.505,-678.8"/>
<polyline fill="none" stroke="black" points="353.505,-678.8 244.495,-678.8 "/>
<path fill="none" stroke="black" d="M244.495,-678.8C238.495,-678.8 232.495,-672.8 232.495,-666.8"/>
<polyline fill="none" stroke="black" points="232.495,-666.8 232.495,-473.2 "/>
<path fill="none" stroke="black" d="M232.495,-473.2C232.495,-467.2 238.495,-461.2 244.495,-461.2"/>
<text text-anchor="middle" x="299" y="-660.8" font-family="Times,serif" font-size="14.00">Lesson</text>
<polyline fill="none" stroke="black" points="232.495,-654 365.505,-654 "/>
<text text-anchor="start" x="240.495" y="-636" font-family="Times,serif" font-size="14.00">id :integer</text>
<text text-anchor="start" x="240.495" y="-619.2" font-family="Times,serif" font-size="14.00">lesson_name :string</text>
<text text-anchor="start" x="240.495" y="-602.4" font-family="Times,serif" font-size="14.00">lesson_type :string</text>
<text text-anchor="start" x="240.495" y="-585.6" font-family="Times,serif" font-size="14.00">seq :integer</text>
<text text-anchor="start" x="240.495" y="-568.8" font-family="Times,serif" font-size="14.00">synopsis :string</text>
<text text-anchor="start" x="240.495" y="-552" font-family="Times,serif" font-size="14.00">status :string</text>
<text text-anchor="start" x="240.495" y="-535.2" font-family="Times,serif" font-size="14.00">description :text</text>
<text text-anchor="start" x="240.495" y="-518.4" font-family="Times,serif" font-size="14.00">version :integer</text>
<text text-anchor="start" x="240.495" y="-501.6" font-family="Times,serif" font-size="14.00">unit_id :integer</text>
<text text-anchor="start" x="240.495" y="-484.8" font-family="Times,serif" font-size="14.00">created_at :datetime</text>
<text text-anchor="start" x="240.495" y="-468" font-family="Times,serif" font-size="14.00">updated_at :datetime</text>
</g>
<!-- LessonLayout -->
<g id="node6" class="node"><title>LessonLayout</title>
<polyline fill="none" stroke="black" points="244.495,-256.4 353.505,-256.4 "/>
<path fill="none" stroke="black" d="M353.505,-256.4C359.505,-256.4 365.505,-262.4 365.505,-268.4"/>
<polyline fill="none" stroke="black" points="365.505,-268.4 365.505,-411.6 "/>
<path fill="none" stroke="black" d="M365.505,-411.6C365.505,-417.6 359.505,-423.6 353.505,-423.6"/>
<polyline fill="none" stroke="black" points="353.505,-423.6 244.495,-423.6 "/>
<path fill="none" stroke="black" d="M244.495,-423.6C238.495,-423.6 232.495,-417.6 232.495,-411.6"/>
<polyline fill="none" stroke="black" points="232.495,-411.6 232.495,-268.4 "/>
<path fill="none" stroke="black" d="M232.495,-268.4C232.495,-262.4 238.495,-256.4 244.495,-256.4"/>
<text text-anchor="middle" x="299" y="-405.6" font-family="Times,serif" font-size="14.00">LessonLayout</text>
<polyline fill="none" stroke="black" points="232.495,-398.8 365.505,-398.8 "/>
<text text-anchor="start" x="240.495" y="-380.8" font-family="Times,serif" font-size="14.00">id :integer</text>
<text text-anchor="start" x="240.495" y="-364" font-family="Times,serif" font-size="14.00">device_type :string</text>
<text text-anchor="start" x="240.495" y="-347.2" font-family="Times,serif" font-size="14.00">seq :integer</text>
<text text-anchor="start" x="240.495" y="-330.4" font-family="Times,serif" font-size="14.00">layout_type :string</text>
<text text-anchor="start" x="240.495" y="-313.6" font-family="Times,serif" font-size="14.00">version :integer</text>
<text text-anchor="start" x="240.495" y="-296.8" font-family="Times,serif" font-size="14.00">lesson_id :integer</text>
<text text-anchor="start" x="240.495" y="-280" font-family="Times,serif" font-size="14.00">created_at :datetime</text>
<text text-anchor="start" x="240.495" y="-263.2" font-family="Times,serif" font-size="14.00">updated_at :datetime</text>
</g>
<!-- Lesson&#45;&gt;LessonLayout -->
<g id="edge4" class="edge"><title>Lesson&#45;&gt;LessonLayout</title>
<path fill="none" stroke="#5a2d22" d="M299,-452.768C299,-446.483 299,-440.206 299,-434.015"/>
<ellipse fill="none" stroke="#5a2d22" cx="299" cy="-457.009" rx="4" ry="4"/>
<polygon fill="#5a2d22" stroke="#5a2d22" points="299,-433.69 303.5,-423.69 299,-428.69 299,-423.69 299,-423.69 299,-423.69 299,-428.69 294.5,-423.69 299,-433.69 299,-433.69"/>
</g>
<!-- LessonLayout&#45;&gt;LayoutField -->
<g id="edge6" class="edge"><title>LessonLayout&#45;&gt;LayoutField</title>
<path fill="none" stroke="#61a9a1" d="M264.54,-248.692C257.786,-230.992 250.728,-212.495 244.057,-195.011"/>
<ellipse fill="none" stroke="#61a9a1" cx="266.042" cy="-252.627" rx="4.00001" ry="4.00001"/>
<polygon fill="#61a9a1" stroke="#61a9a1" points="243.96,-194.756 244.599,-183.809 242.177,-190.084 240.394,-185.413 240.394,-185.413 240.394,-185.413 242.177,-190.084 236.19,-187.017 243.96,-194.756 243.96,-194.756"/>
</g>
<!-- LessonLayout&#45;&gt;LayoutTable -->
<g id="edge8" class="edge"><title>LessonLayout&#45;&gt;LayoutTable</title>
<path fill="none" stroke="#866022" d="M333.876,-248.64C336.392,-242.122 338.949,-235.495 341.514,-228.851"/>
<ellipse fill="none" stroke="#866022" cx="332.335" cy="-252.633" rx="4.00001" ry="4.00001"/>
<polygon fill="#866022" stroke="#866022" points="341.671,-228.444 349.469,-220.736 343.471,-223.78 345.271,-219.115 345.271,-219.115 345.271,-219.115 343.471,-223.78 341.073,-217.495 341.671,-228.444 341.671,-228.444"/>
</g>
<!-- Lookup -->
<g id="node7" class="node"><title>Lookup</title>
<polyline fill="none" stroke="black" points="403.495,-1014.8 512.505,-1014.8 "/>
<path fill="none" stroke="black" d="M512.505,-1014.8C518.505,-1014.8 524.505,-1020.8 524.505,-1026.8"/>
<polyline fill="none" stroke="black" points="524.505,-1026.8 524.505,-1153.2 "/>
<path fill="none" stroke="black" d="M524.505,-1153.2C524.505,-1159.2 518.505,-1165.2 512.505,-1165.2"/>
<polyline fill="none" stroke="black" points="512.505,-1165.2 403.495,-1165.2 "/>
<path fill="none" stroke="black" d="M403.495,-1165.2C397.495,-1165.2 391.495,-1159.2 391.495,-1153.2"/>
<polyline fill="none" stroke="black" points="391.495,-1153.2 391.495,-1026.8 "/>
<path fill="none" stroke="black" d="M391.495,-1026.8C391.495,-1020.8 397.495,-1014.8 403.495,-1014.8"/>
<text text-anchor="middle" x="458" y="-1147.2" font-family="Times,serif" font-size="14.00">Lookup</text>
<polyline fill="none" stroke="black" points="391.495,-1140.4 524.505,-1140.4 "/>
<text text-anchor="start" x="399.495" y="-1122.4" font-family="Times,serif" font-size="14.00">id :integer</text>
<text text-anchor="start" x="399.495" y="-1105.6" font-family="Times,serif" font-size="14.00">field_name :string</text>
<text text-anchor="start" x="399.495" y="-1088.8" font-family="Times,serif" font-size="14.00">lookup_text :string</text>
<text text-anchor="start" x="399.495" y="-1072" font-family="Times,serif" font-size="14.00">model_name :string</text>
<text text-anchor="start" x="399.495" y="-1055.2" font-family="Times,serif" font-size="14.00">note :string</text>
<text text-anchor="start" x="399.495" y="-1038.4" font-family="Times,serif" font-size="14.00">created_at :datetime</text>
<text text-anchor="start" x="399.495" y="-1021.6" font-family="Times,serif" font-size="14.00">updated_at :datetime</text>
</g>
<!-- Media -->
<g id="node8" class="node"><title>Media</title>
<polyline fill="none" stroke="black" points="554.226,-1006.4 699.774,-1006.4 "/>
<path fill="none" stroke="black" d="M699.774,-1006.4C705.774,-1006.4 711.774,-1012.4 711.774,-1018.4"/>
<polyline fill="none" stroke="black" points="711.774,-1018.4 711.774,-1161.6 "/>
<path fill="none" stroke="black" d="M711.774,-1161.6C711.774,-1167.6 705.774,-1173.6 699.774,-1173.6"/>
<polyline fill="none" stroke="black" points="699.774,-1173.6 554.226,-1173.6 "/>
<path fill="none" stroke="black" d="M554.226,-1173.6C548.226,-1173.6 542.226,-1167.6 542.226,-1161.6"/>
<polyline fill="none" stroke="black" points="542.226,-1161.6 542.226,-1018.4 "/>
<path fill="none" stroke="black" d="M542.226,-1018.4C542.226,-1012.4 548.226,-1006.4 554.226,-1006.4"/>
<text text-anchor="middle" x="627" y="-1155.6" font-family="Times,serif" font-size="14.00">Media</text>
<polyline fill="none" stroke="black" points="542.226,-1148.8 711.774,-1148.8 "/>
<text text-anchor="start" x="550.226" y="-1130.8" font-family="Times,serif" font-size="14.00">id :integer</text>
<text text-anchor="start" x="550.226" y="-1114" font-family="Times,serif" font-size="14.00">media_filename :string</text>
<text text-anchor="start" x="550.226" y="-1097.2" font-family="Times,serif" font-size="14.00">file_bitmap :integer</text>
<text text-anchor="start" x="550.226" y="-1080.4" font-family="Times,serif" font-size="14.00">media_name :string</text>
<text text-anchor="start" x="550.226" y="-1063.6" font-family="Times,serif" font-size="14.00">description :text</text>
<text text-anchor="start" x="550.226" y="-1046.8" font-family="Times,serif" font-size="14.00">media_catagory_id :integer</text>
<text text-anchor="start" x="550.226" y="-1030" font-family="Times,serif" font-size="14.00">created_at :datetime</text>
<text text-anchor="start" x="550.226" y="-1013.2" font-family="Times,serif" font-size="14.00">updated_at :datetime</text>
</g>
<!-- MediaCatagory -->
<g id="node9" class="node"><title>MediaCatagory</title>
<polyline fill="none" stroke="black" points="741.495,-1014.8 850.505,-1014.8 "/>
<path fill="none" stroke="black" d="M850.505,-1014.8C856.505,-1014.8 862.505,-1020.8 862.505,-1026.8"/>
<polyline fill="none" stroke="black" points="862.505,-1026.8 862.505,-1153.2 "/>
<path fill="none" stroke="black" d="M862.505,-1153.2C862.505,-1159.2 856.505,-1165.2 850.505,-1165.2"/>
<polyline fill="none" stroke="black" points="850.505,-1165.2 741.495,-1165.2 "/>
<path fill="none" stroke="black" d="M741.495,-1165.2C735.495,-1165.2 729.495,-1159.2 729.495,-1153.2"/>
<polyline fill="none" stroke="black" points="729.495,-1153.2 729.495,-1026.8 "/>
<path fill="none" stroke="black" d="M729.495,-1026.8C729.495,-1020.8 735.495,-1014.8 741.495,-1014.8"/>
<text text-anchor="middle" x="796" y="-1147.2" font-family="Times,serif" font-size="14.00">MediaCatagory</text>
<polyline fill="none" stroke="black" points="729.495,-1140.4 862.505,-1140.4 "/>
<text text-anchor="start" x="737.495" y="-1122.4" font-family="Times,serif" font-size="14.00">id :integer</text>
<text text-anchor="start" x="737.495" y="-1105.6" font-family="Times,serif" font-size="14.00">seq :integer</text>
<text text-anchor="start" x="737.495" y="-1088.8" font-family="Times,serif" font-size="14.00">description :text</text>
<text text-anchor="start" x="737.495" y="-1072" font-family="Times,serif" font-size="14.00">version :integer</text>
<text text-anchor="start" x="737.495" y="-1055.2" font-family="Times,serif" font-size="14.00">course_id :integer</text>
<text text-anchor="start" x="737.495" y="-1038.4" font-family="Times,serif" font-size="14.00">created_at :datetime</text>
<text text-anchor="start" x="737.495" y="-1021.6" font-family="Times,serif" font-size="14.00">updated_at :datetime</text>
</g>
<!-- Sentence -->
<g id="node10" class="node"><title>Sentence</title>
<polyline fill="none" stroke="black" points="892.495,-1031.6 1001.51,-1031.6 "/>
<path fill="none" stroke="black" d="M1001.51,-1031.6C1007.51,-1031.6 1013.51,-1037.6 1013.51,-1043.6"/>
<polyline fill="none" stroke="black" points="1013.51,-1043.6 1013.51,-1136.4 "/>
<path fill="none" stroke="black" d="M1013.51,-1136.4C1013.51,-1142.4 1007.51,-1148.4 1001.51,-1148.4"/>
<polyline fill="none" stroke="black" points="1001.51,-1148.4 892.495,-1148.4 "/>
<path fill="none" stroke="black" d="M892.495,-1148.4C886.495,-1148.4 880.495,-1142.4 880.495,-1136.4"/>
<polyline fill="none" stroke="black" points="880.495,-1136.4 880.495,-1043.6 "/>
<path fill="none" stroke="black" d="M880.495,-1043.6C880.495,-1037.6 886.495,-1031.6 892.495,-1031.6"/>
<text text-anchor="middle" x="947" y="-1130.4" font-family="Times,serif" font-size="14.00">Sentence</text>
<polyline fill="none" stroke="black" points="880.495,-1123.6 1013.51,-1123.6 "/>
<text text-anchor="start" x="888.495" y="-1105.6" font-family="Times,serif" font-size="14.00">id :integer</text>
<text text-anchor="start" x="888.495" y="-1088.8" font-family="Times,serif" font-size="14.00">language :string</text>
<text text-anchor="start" x="888.495" y="-1072" font-family="Times,serif" font-size="14.00">sentence :string</text>
<text text-anchor="start" x="888.495" y="-1055.2" font-family="Times,serif" font-size="14.00">created_at :datetime</text>
<text text-anchor="start" x="888.495" y="-1038.4" font-family="Times,serif" font-size="14.00">updated_at :datetime</text>
</g>
<!-- SentenceTag -->
<g id="node11" class="node"><title>SentenceTag</title>
<polyline fill="none" stroke="black" points="1043.49,-1031.6 1152.51,-1031.6 "/>
<path fill="none" stroke="black" d="M1152.51,-1031.6C1158.51,-1031.6 1164.51,-1037.6 1164.51,-1043.6"/>
<polyline fill="none" stroke="black" points="1164.51,-1043.6 1164.51,-1136.4 "/>
<path fill="none" stroke="black" d="M1164.51,-1136.4C1164.51,-1142.4 1158.51,-1148.4 1152.51,-1148.4"/>
<polyline fill="none" stroke="black" points="1152.51,-1148.4 1043.49,-1148.4 "/>
<path fill="none" stroke="black" d="M1043.49,-1148.4C1037.49,-1148.4 1031.49,-1142.4 1031.49,-1136.4"/>
<polyline fill="none" stroke="black" points="1031.49,-1136.4 1031.49,-1043.6 "/>
<path fill="none" stroke="black" d="M1031.49,-1043.6C1031.49,-1037.6 1037.49,-1031.6 1043.49,-1031.6"/>
<text text-anchor="middle" x="1098" y="-1130.4" font-family="Times,serif" font-size="14.00">SentenceTag</text>
<polyline fill="none" stroke="black" points="1031.49,-1123.6 1164.51,-1123.6 "/>
<text text-anchor="start" x="1039.49" y="-1105.6" font-family="Times,serif" font-size="14.00">id :integer</text>
<text text-anchor="start" x="1039.49" y="-1088.8" font-family="Times,serif" font-size="14.00">sentence_id :integer</text>
<text text-anchor="start" x="1039.49" y="-1072" font-family="Times,serif" font-size="14.00">tag :string</text>
<text text-anchor="start" x="1039.49" y="-1055.2" font-family="Times,serif" font-size="14.00">created_at :datetime</text>
<text text-anchor="start" x="1039.49" y="-1038.4" font-family="Times,serif" font-size="14.00">updated_at :datetime</text>
</g>
<!-- SentenceWordXref -->
<g id="node12" class="node"><title>SentenceWordXref</title>
<polyline fill="none" stroke="black" points="1194.49,-1031.6 1303.51,-1031.6 "/>
<path fill="none" stroke="black" d="M1303.51,-1031.6C1309.51,-1031.6 1315.51,-1037.6 1315.51,-1043.6"/>
<polyline fill="none" stroke="black" points="1315.51,-1043.6 1315.51,-1136.4 "/>
<path fill="none" stroke="black" d="M1315.51,-1136.4C1315.51,-1142.4 1309.51,-1148.4 1303.51,-1148.4"/>
<polyline fill="none" stroke="black" points="1303.51,-1148.4 1194.49,-1148.4 "/>
<path fill="none" stroke="black" d="M1194.49,-1148.4C1188.49,-1148.4 1182.49,-1142.4 1182.49,-1136.4"/>
<polyline fill="none" stroke="black" points="1182.49,-1136.4 1182.49,-1043.6 "/>
<path fill="none" stroke="black" d="M1182.49,-1043.6C1182.49,-1037.6 1188.49,-1031.6 1194.49,-1031.6"/>
<text text-anchor="middle" x="1249" y="-1130.4" font-family="Times,serif" font-size="14.00">SentenceWordXref</text>
<polyline fill="none" stroke="black" points="1182.49,-1123.6 1315.51,-1123.6 "/>
<text text-anchor="start" x="1190.49" y="-1105.6" font-family="Times,serif" font-size="14.00">id :integer</text>
<text text-anchor="start" x="1190.49" y="-1088.8" font-family="Times,serif" font-size="14.00">sentence_id :integer</text>
<text text-anchor="start" x="1190.49" y="-1072" font-family="Times,serif" font-size="14.00">word_id :integer</text>
<text text-anchor="start" x="1190.49" y="-1055.2" font-family="Times,serif" font-size="14.00">created_at :datetime</text>
<text text-anchor="start" x="1190.49" y="-1038.4" font-family="Times,serif" font-size="14.00">updated_at :datetime</text>
</g>
<!-- SentenceXref -->
<g id="node13" class="node"><title>SentenceXref</title>
<polyline fill="none" stroke="black" points="1345.67,-1031.6 1466.33,-1031.6 "/>
<path fill="none" stroke="black" d="M1466.33,-1031.6C1472.33,-1031.6 1478.33,-1037.6 1478.33,-1043.6"/>
<polyline fill="none" stroke="black" points="1478.33,-1043.6 1478.33,-1136.4 "/>
<path fill="none" stroke="black" d="M1478.33,-1136.4C1478.33,-1142.4 1472.33,-1148.4 1466.33,-1148.4"/>
<polyline fill="none" stroke="black" points="1466.33,-1148.4 1345.67,-1148.4 "/>
<path fill="none" stroke="black" d="M1345.67,-1148.4C1339.67,-1148.4 1333.67,-1142.4 1333.67,-1136.4"/>
<polyline fill="none" stroke="black" points="1333.67,-1136.4 1333.67,-1043.6 "/>
<path fill="none" stroke="black" d="M1333.67,-1043.6C1333.67,-1037.6 1339.67,-1031.6 1345.67,-1031.6"/>
<text text-anchor="middle" x="1406" y="-1130.4" font-family="Times,serif" font-size="14.00">SentenceXref</text>
<polyline fill="none" stroke="black" points="1333.67,-1123.6 1478.33,-1123.6 "/>
<text text-anchor="start" x="1341.67" y="-1105.6" font-family="Times,serif" font-size="14.00">id :integer</text>
<text text-anchor="start" x="1341.67" y="-1088.8" font-family="Times,serif" font-size="14.00">sentence_from :integer</text>
<text text-anchor="start" x="1341.67" y="-1072" font-family="Times,serif" font-size="14.00">sentence_to :integer</text>
<text text-anchor="start" x="1341.67" y="-1055.2" font-family="Times,serif" font-size="14.00">created_at :datetime</text>
<text text-anchor="start" x="1341.67" y="-1038.4" font-family="Times,serif" font-size="14.00">updated_at :datetime</text>
</g>
<!-- Unit&#45;&gt;Lesson -->
<g id="edge10" class="edge"><title>Unit&#45;&gt;Lesson</title>
<path fill="none" stroke="#a8492f" d="M299,-708.641C299,-702.159 299,-695.64 299,-689.151"/>
<ellipse fill="none" stroke="#a8492f" cx="299" cy="-712.913" rx="4" ry="4"/>
<polygon fill="#a8492f" stroke="#a8492f" points="299,-688.99 303.5,-678.99 299,-683.99 299,-678.99 299,-678.99 299,-678.99 299,-683.99 294.5,-678.99 299,-688.99 299,-688.99"/>
</g>
<!-- Word -->
<g id="node15" class="node"><title>Word</title>
<polyline fill="none" stroke="black" points="1508.38,-1014.8 1637.62,-1014.8 "/>
<path fill="none" stroke="black" d="M1637.62,-1014.8C1643.62,-1014.8 1649.62,-1020.8 1649.62,-1026.8"/>
<polyline fill="none" stroke="black" points="1649.62,-1026.8 1649.62,-1153.2 "/>
<path fill="none" stroke="black" d="M1649.62,-1153.2C1649.62,-1159.2 1643.62,-1165.2 1637.62,-1165.2"/>
<polyline fill="none" stroke="black" points="1637.62,-1165.2 1508.38,-1165.2 "/>
<path fill="none" stroke="black" d="M1508.38,-1165.2C1502.38,-1165.2 1496.38,-1159.2 1496.38,-1153.2"/>
<polyline fill="none" stroke="black" points="1496.38,-1153.2 1496.38,-1026.8 "/>
<path fill="none" stroke="black" d="M1496.38,-1026.8C1496.38,-1020.8 1502.38,-1014.8 1508.38,-1014.8"/>
<text text-anchor="middle" x="1573" y="-1147.2" font-family="Times,serif" font-size="14.00">Word</text>
<polyline fill="none" stroke="black" points="1496.38,-1140.4 1649.62,-1140.4 "/>
<text text-anchor="start" x="1504.38" y="-1122.4" font-family="Times,serif" font-size="14.00">id :integer</text>
<text text-anchor="start" x="1504.38" y="-1105.6" font-family="Times,serif" font-size="14.00">word_fluent :string</text>
<text text-anchor="start" x="1504.38" y="-1088.8" font-family="Times,serif" font-size="14.00">fluent_language :string</text>
<text text-anchor="start" x="1504.38" y="-1072" font-family="Times,serif" font-size="14.00">word_foreign :string</text>
<text text-anchor="start" x="1504.38" y="-1055.2" font-family="Times,serif" font-size="14.00">foreign_language :string</text>
<text text-anchor="start" x="1504.38" y="-1038.4" font-family="Times,serif" font-size="14.00">created_at :datetime</text>
<text text-anchor="start" x="1504.38" y="-1021.6" font-family="Times,serif" font-size="14.00">updated_at :datetime</text>
</g>
</g>
</svg>
