<?xml version="1.0" encoding="UTF-8" standalone="no"?>
<!DOCTYPE svg PUBLIC "-//W3C//DTD SVG 1.1//EN"
 "http://www.w3.org/Graphics/SVG/1.1/DTD/svg11.dtd">
<!-- Generated by graphviz version 2.28.0 (20121028.1614)
 -->
<!-- Title: models_diagram Pages: 1 -->
<svg width="1466pt" height="382pt"
 viewBox="0.00 0.00 1466.00 382.00" xmlns="http://www.w3.org/2000/svg" xmlns:xlink="http://www.w3.org/1999/xlink">
<g id="graph1" class="graph" transform="scale(1 1) rotate(0) translate(4 378)">
<title>models_diagram</title>
<polygon fill="white" stroke="white" points="-4,5 -4,-378 1463,-378 1463,5 -4,5"/>
<!-- _diagram_info -->
<g id="node1" class="node"><title>_diagram_info</title>
<text text-anchor="start" x="11.5503" y="-357" font-family="Times,serif" font-size="13.00">Models diagram</text>
<text text-anchor="start" x="11.5503" y="-341.4" font-family="Times,serif" font-size="13.00">Date: Oct 31 2012 &#45; 17:41</text>
<text text-anchor="start" x="11.5503" y="-325.8" font-family="Times,serif" font-size="13.00">Migration version: 20121031163837</text>
<text text-anchor="start" x="11.5503" y="-310.2" font-family="Times,serif" font-size="13.00">Generated by RailRoady 1.1.0</text>
<text text-anchor="start" x="11.5503" y="-294.6" font-family="Times,serif" font-size="13.00">http://railroady.prestonlee.com</text>
</g>
<!-- Badge -->
<g id="node2" class="node"><title>Badge</title>
<ellipse fill="none" stroke="black" cx="264" cy="-331" rx="35.5596" ry="18"/>
<text text-anchor="middle" x="264" y="-325.4" font-family="Times,serif" font-size="14.00">Badge</text>
</g>
<!-- Course -->
<g id="node3" class="node"><title>Course</title>
<ellipse fill="none" stroke="black" cx="356" cy="-331" rx="38.0929" ry="18"/>
<text text-anchor="middle" x="356" y="-325.4" font-family="Times,serif" font-size="14.00">Course</text>
</g>
<!-- CourseSession -->
<g id="node4" class="node"><title>CourseSession</title>
<ellipse fill="none" stroke="black" cx="168" cy="-234" rx="67.3624" ry="18"/>
<text text-anchor="middle" x="168" y="-228.4" font-family="Times,serif" font-size="14.00">CourseSession</text>
</g>
<!-- Course&#45;&gt;CourseSession -->
<g id="edge4" class="edge"><title>Course&#45;&gt;CourseSession</title>
<path fill="none" stroke="#2599ee" d="M334.456,-308.227C326.603,-301.113 317.347,-293.608 308,-288 281.502,-272.103 249.418,-259.54 222.653,-250.643"/>
<ellipse fill="none" stroke="#2599ee" cx="337.772" cy="-311.328" rx="4.00002" ry="4.00002"/>
<polygon fill="#2599ee" stroke="#2599ee" points="222.566,-250.615 214.441,-243.251 217.81,-249.074 213.054,-247.532 213.054,-247.532 213.054,-247.532 217.81,-249.074 211.666,-251.813 222.566,-250.615 222.566,-250.615"/>
</g>
<!-- Unit -->
<g id="node20" class="node"><title>Unit</title>
<ellipse fill="none" stroke="black" cx="360" cy="-234" rx="28.3082" ry="18"/>
<text text-anchor="middle" x="360" y="-228.4" font-family="Times,serif" font-size="14.00">Unit</text>
</g>
<!-- Course&#45;&gt;Unit -->
<g id="edge2" class="edge"><title>Course&#45;&gt;Unit</title>
<path fill="none" stroke="#c40964" d="M357.08,-304.36C357.632,-291.246 358.304,-275.288 358.864,-261.987"/>
<ellipse fill="none" stroke="#c40964" cx="356.902" cy="-308.579" rx="4" ry="4"/>
<polygon fill="#c40964" stroke="#c40964" points="358.864,-261.986 363.78,-252.184 359.074,-256.99 359.284,-251.994 359.284,-251.994 359.284,-251.994 359.074,-256.99 354.788,-251.805 358.864,-261.986 358.864,-261.986"/>
</g>
<!-- CourseSessionEnrollment -->
<g id="node5" class="node"><title>CourseSessionEnrollment</title>
<ellipse fill="none" stroke="black" cx="111" cy="-90" rx="111.032" ry="18"/>
<text text-anchor="middle" x="111" y="-84.4" font-family="Times,serif" font-size="14.00">CourseSessionEnrollment</text>
</g>
<!-- CourseSession&#45;&gt;CourseSessionEnrollment -->
<g id="edge6" class="edge"><title>CourseSession&#45;&gt;CourseSessionEnrollment</title>
<path fill="none" stroke="#9188e4" d="M148.044,-209.586C141.432,-200.792 134.596,-190.398 130,-180 121.284,-160.281 116.462,-136.298 113.858,-118.198"/>
<ellipse fill="none" stroke="#9188e4" cx="150.559" cy="-212.817" rx="4.00002" ry="4.00002"/>
<polygon fill="#9188e4" stroke="#9188e4" points="113.827,-117.956 117.002,-107.46 113.183,-112.998 112.539,-108.039 112.539,-108.039 112.539,-108.039 113.183,-112.998 108.077,-108.619 113.827,-117.956 113.827,-117.956"/>
</g>
<!-- User -->
<g id="node22" class="node"><title>User</title>
<ellipse fill="none" stroke="black" cx="168" cy="-162" rx="28.9087" ry="18"/>
<text text-anchor="middle" x="168" y="-156.4" font-family="Times,serif" font-size="14.00">User</text>
</g>
<!-- CourseSession&#45;&gt;User -->
<g id="edge8" class="edge"><title>CourseSession&#45;&gt;User</title>
<path fill="none" stroke="#fbddbb" d="M168,-205.665C168,-200.687 168,-195.491 168,-190.507"/>
<polygon fill="#fbddbb" stroke="#fbddbb" points="168,-205.697 163.5,-215.697 168,-210.697 168,-215.697 168,-215.697 168,-215.697 168,-210.697 172.5,-215.697 168,-205.697 168,-205.697"/>
<polygon fill="#fbddbb" stroke="#fbddbb" points="168,-190.104 172.5,-180.104 168,-185.104 168,-180.104 168,-180.104 168,-180.104 168,-185.104 163.5,-180.104 168,-190.104 168,-190.104"/>
</g>
<!-- LayoutField -->
<g id="node6" class="node"><title>LayoutField</title>
<ellipse fill="none" stroke="black" cx="297" cy="-18" rx="58.3626" ry="18"/>
<text text-anchor="middle" x="297" y="-12.4" font-family="Times,serif" font-size="14.00">LayoutField</text>
</g>
<!-- LayoutTable -->
<g id="node7" class="node"><title>LayoutTable</title>
<ellipse fill="none" stroke="black" cx="434" cy="-18" rx="59.5472" ry="18"/>
<text text-anchor="middle" x="434" y="-12.4" font-family="Times,serif" font-size="14.00">LayoutTable</text>
</g>
<!-- Lesson -->
<g id="node8" class="node"><title>Lesson</title>
<ellipse fill="none" stroke="black" cx="408" cy="-162" rx="38.0929" ry="18"/>
<text text-anchor="middle" x="408" y="-156.4" font-family="Times,serif" font-size="14.00">Lesson</text>
</g>
<!-- LessonLayout -->
<g id="node9" class="node"><title>LessonLayout</title>
<ellipse fill="none" stroke="black" cx="435" cy="-90" rx="65.6218" ry="18"/>
<text text-anchor="middle" x="435" y="-84.4" font-family="Times,serif" font-size="14.00">LessonLayout</text>
</g>
<!-- Lesson&#45;&gt;LessonLayout -->
<g id="edge10" class="edge"><title>Lesson&#45;&gt;LessonLayout</title>
<path fill="none" stroke="#95427f" d="M417.432,-136.548C419.792,-130.428 422.335,-123.835 424.734,-117.616"/>
<ellipse fill="none" stroke="#95427f" cx="415.975" cy="-140.323" rx="4.00001" ry="4.00001"/>
<polygon fill="#95427f" stroke="#95427f" points="424.738,-117.605 432.535,-109.895 426.537,-112.94 428.337,-108.275 428.337,-108.275 428.337,-108.275 426.537,-112.94 424.138,-106.656 424.738,-117.605 424.738,-117.605"/>
</g>
<!-- LessonLayout&#45;&gt;LayoutField -->
<g id="edge12" class="edge"><title>LessonLayout&#45;&gt;LayoutField</title>
<path fill="none" stroke="#d86b31" d="M397.648,-70.0533C378.179,-60.1778 354.419,-48.1258 334.875,-38.2119"/>
<ellipse fill="none" stroke="#d86b31" cx="401.489" cy="-72.0015" rx="4.00002" ry="4.00002"/>
<polygon fill="#d86b31" stroke="#d86b31" points="334.858,-38.2034 327.976,-29.6664 330.399,-35.9415 325.94,-33.6796 325.94,-33.6796 325.94,-33.6796 330.399,-35.9415 323.904,-37.6929 334.858,-38.2034 334.858,-38.2034"/>
</g>
<!-- LessonLayout&#45;&gt;LayoutTable -->
<g id="edge14" class="edge"><title>LessonLayout&#45;&gt;LayoutTable</title>
<path fill="none" stroke="#b4ba44" d="M434.638,-63.6398C434.558,-58.0629 434.473,-52.1319 434.393,-46.4761"/>
<ellipse fill="none" stroke="#b4ba44" cx="434.696" cy="-67.697" rx="4" ry="4"/>
<polygon fill="#b4ba44" stroke="#b4ba44" points="434.387,-46.1033 438.744,-36.04 434.316,-41.1038 434.244,-36.1043 434.244,-36.1043 434.244,-36.1043 434.316,-41.1038 429.745,-36.1687 434.387,-46.1033 434.387,-46.1033"/>
</g>
<!-- Lookup -->
<g id="node10" class="node"><title>Lookup</title>
<ellipse fill="none" stroke="black" cx="513" cy="-331" rx="41.1166" ry="18"/>
<text text-anchor="middle" x="513" y="-325.4" font-family="Times,serif" font-size="14.00">Lookup</text>
</g>
<!-- Media -->
<g id="node11" class="node"><title>Media</title>
<ellipse fill="none" stroke="black" cx="673" cy="-234" rx="35.5596" ry="18"/>
<text text-anchor="middle" x="673" y="-228.4" font-family="Times,serif" font-size="14.00">Media</text>
</g>
<!-- MediaSentenceXref -->
<g id="node13" class="node"><title>MediaSentenceXref</title>
<ellipse fill="none" stroke="black" cx="616" cy="-90" rx="87.8825" ry="18"/>
<text text-anchor="middle" x="616" y="-84.4" font-family="Times,serif" font-size="14.00">MediaSentenceXref</text>
</g>
<!-- Media&#45;&gt;MediaSentenceXref -->
<g id="edge16" class="edge"><title>Media&#45;&gt;MediaSentenceXref</title>
<path fill="none" stroke="#c5b115" d="M663.206,-208.6C653.029,-183.247 637.152,-143.695 626.664,-117.567"/>
<ellipse fill="none" stroke="#c5b115" cx="664.747" cy="-212.441" rx="4.00001" ry="4.00001"/>
<polygon fill="#c5b115" stroke="#c5b115" points="626.657,-117.548 627.108,-106.591 624.794,-112.908 622.931,-108.268 622.931,-108.268 622.931,-108.268 624.794,-112.908 618.755,-109.944 626.657,-117.548 626.657,-117.548"/>
</g>
<!-- Sentence -->
<g id="node14" class="node"><title>Sentence</title>
<ellipse fill="none" stroke="black" cx="721" cy="-162" rx="45.3394" ry="18"/>
<text text-anchor="middle" x="721" y="-156.4" font-family="Times,serif" font-size="14.00">Sentence</text>
</g>
<!-- Media&#45;&gt;Sentence -->
<g id="edge18" class="edge"><title>Media&#45;&gt;Sentence</title>
<path fill="none" stroke="#a548bb" d="M689.852,-208.424C694.344,-201.873 699.204,-194.786 703.718,-188.202"/>
<polygon fill="#a548bb" stroke="#a548bb" points="689.788,-208.517 680.422,-214.22 686.96,-212.641 684.133,-216.765 684.133,-216.765 684.133,-216.765 686.96,-212.641 687.844,-219.31 689.788,-208.517 689.788,-208.517"/>
<polygon fill="#a548bb" stroke="#a548bb" points="703.939,-187.881 713.306,-182.178 706.767,-183.757 709.594,-179.633 709.594,-179.633 709.594,-179.633 706.767,-183.757 705.883,-177.089 703.939,-187.881 703.939,-187.881"/>
</g>
<!-- MediaCatagory -->
<g id="node12" class="node"><title>MediaCatagory</title>
<ellipse fill="none" stroke="black" cx="673" cy="-331" rx="71.1572" ry="18"/>
<text text-anchor="middle" x="673" y="-325.4" font-family="Times,serif" font-size="14.00">MediaCatagory</text>
</g>
<!-- MediaCatagory&#45;&gt;Media -->
<g id="edge20" class="edge"><title>MediaCatagory&#45;&gt;Media</title>
<path fill="none" stroke="#abe0f3" d="M673,-304.414C673,-291.518 673,-275.862 673,-262.685"/>
<ellipse fill="none" stroke="#abe0f3" cx="673" cy="-308.576" rx="4" ry="4"/>
<polygon fill="#abe0f3" stroke="#abe0f3" points="673,-262.314 677.5,-252.314 673,-257.314 673,-252.314 673,-252.314 673,-252.314 673,-257.314 668.5,-252.314 673,-262.314 673,-262.314"/>
</g>
<!-- Sentence&#45;&gt;MediaSentenceXref -->
<g id="edge22" class="edge"><title>Sentence&#45;&gt;MediaSentenceXref</title>
<path fill="none" stroke="#b1f04d" d="M691.658,-141.439C678.526,-132.684 662.977,-122.318 649.4,-113.267"/>
<ellipse fill="none" stroke="#b1f04d" cx="695.404" cy="-143.936" rx="4.00002" ry="4.00002"/>
<polygon fill="#b1f04d" stroke="#b1f04d" points="649.129,-113.086 643.305,-103.795 644.969,-110.313 640.809,-107.539 640.809,-107.539 640.809,-107.539 644.969,-110.313 638.313,-111.283 649.129,-113.086 649.129,-113.086"/>
</g>
<!-- SentenceTagXref -->
<g id="node16" class="node"><title>SentenceTagXref</title>
<ellipse fill="none" stroke="black" cx="759" cy="-18" rx="77.3852" ry="18"/>
<text text-anchor="middle" x="759" y="-12.4" font-family="Times,serif" font-size="14.00">SentenceTagXref</text>
</g>
<!-- Sentence&#45;&gt;SentenceTagXref -->
<g id="edge24" class="edge"><title>Sentence&#45;&gt;SentenceTagXref</title>
<path fill="none" stroke="#980c08" d="M727.709,-135.929C734.454,-110.725 744.818,-71.9942 751.749,-46.0947"/>
<ellipse fill="none" stroke="#980c08" cx="726.618" cy="-140.007" rx="4.00001" ry="4.00001"/>
<polygon fill="#980c08" stroke="#980c08" points="751.815,-45.8494 758.747,-37.3526 753.107,-41.0193 754.4,-36.1893 754.4,-36.1893 754.4,-36.1893 753.107,-41.0193 750.053,-35.0259 751.815,-45.8494 751.815,-45.8494"/>
</g>
<!-- Tag -->
<g id="node19" class="node"><title>Tag</title>
<ellipse fill="none" stroke="black" cx="787" cy="-90" rx="27" ry="18"/>
<text text-anchor="middle" x="787" y="-84.4" font-family="Times,serif" font-size="14.00">Tag</text>
</g>
<!-- Sentence&#45;&gt;Tag -->
<g id="edge26" class="edge"><title>Sentence&#45;&gt;Tag</title>
<path fill="none" stroke="#653b37" d="M743.199,-137.456C750.624,-129.581 758.868,-120.837 766.183,-113.078"/>
<polygon fill="#653b37" stroke="#653b37" points="743.168,-137.489 733.033,-141.678 739.738,-141.127 736.308,-144.765 736.308,-144.765 736.308,-144.765 739.738,-141.127 739.582,-147.852 743.168,-137.489 743.168,-137.489"/>
<polygon fill="#653b37" stroke="#653b37" points="766.264,-112.993 776.398,-108.804 769.694,-109.355 773.124,-105.717 773.124,-105.717 773.124,-105.717 769.694,-109.355 769.85,-102.63 766.264,-112.993 766.264,-112.993"/>
</g>
<!-- SentenceTag -->
<g id="node15" class="node"><title>SentenceTag</title>
<ellipse fill="none" stroke="black" cx="822" cy="-331" rx="60.3474" ry="18"/>
<text text-anchor="middle" x="822" y="-325.4" font-family="Times,serif" font-size="14.00">SentenceTag</text>
</g>
<!-- SentenceWordXref -->
<g id="node17" class="node"><title>SentenceWordXref</title>
<ellipse fill="none" stroke="black" cx="985" cy="-331" rx="84.2055" ry="18"/>
<text text-anchor="middle" x="985" y="-325.4" font-family="Times,serif" font-size="14.00">SentenceWordXref</text>
</g>
<!-- SentenceXref -->
<g id="node18" class="node"><title>SentenceXref</title>
<ellipse fill="none" stroke="black" cx="1151" cy="-331" rx="63.3755" ry="18"/>
<text text-anchor="middle" x="1151" y="-325.4" font-family="Times,serif" font-size="14.00">SentenceXref</text>
</g>
<!-- Tag&#45;&gt;SentenceTagXref -->
<g id="edge28" class="edge"><title>Tag&#45;&gt;SentenceTagXref</title>
<path fill="none" stroke="#0cbabe" d="M777.311,-64.7779C774.818,-58.544 772.122,-51.8046 769.585,-45.4634"/>
<ellipse fill="none" stroke="#0cbabe" cx="778.879" cy="-68.6971" rx="4.00001" ry="4.00001"/>
<polygon fill="#0cbabe" stroke="#0cbabe" points="769.496,-45.241 769.961,-34.2849 767.639,-40.5986 765.782,-35.9562 765.782,-35.9562 765.782,-35.9562 767.639,-40.5986 761.604,-37.6275 769.496,-45.241 769.496,-45.241"/>
</g>
<!-- Unit&#45;&gt;Lesson -->
<g id="edge30" class="edge"><title>Unit&#45;&gt;Lesson</title>
<path fill="none" stroke="#fc1f2f" d="M375.491,-210.409C380.483,-203.129 386.039,-195.027 391.125,-187.61"/>
<ellipse fill="none" stroke="#fc1f2f" cx="373.154" cy="-213.817" rx="4.00002" ry="4.00002"/>
<polygon fill="#fc1f2f" stroke="#fc1f2f" points="391.163,-187.554 400.529,-181.852 393.99,-183.431 396.818,-179.307 396.818,-179.307 396.818,-179.307 393.99,-183.431 393.107,-176.762 391.163,-187.554 391.163,-187.554"/>
</g>
<!-- UnitLayout -->
<g id="node21" class="node"><title>UnitLayout</title>
<ellipse fill="none" stroke="black" cx="296" cy="-90" rx="55.3374" ry="18"/>
<text text-anchor="middle" x="296" y="-84.4" font-family="Times,serif" font-size="14.00">UnitLayout</text>
</g>
<!-- UnitLayout&#45;&gt;LayoutField -->
<g id="edge32" class="edge"><title>UnitLayout&#45;&gt;LayoutField</title>
<path fill="none" stroke="#1e7be4" d="M296.362,-63.6398C296.442,-58.0629 296.527,-52.1319 296.607,-46.4761"/>
<ellipse fill="none" stroke="#1e7be4" cx="296.304" cy="-67.697" rx="4" ry="4"/>
<polygon fill="#1e7be4" stroke="#1e7be4" points="296.613,-46.1033 301.255,-36.1687 296.684,-41.1038 296.756,-36.1043 296.756,-36.1043 296.756,-36.1043 296.684,-41.1038 292.256,-36.04 296.613,-46.1033 296.613,-46.1033"/>
</g>
<!-- UnitLayout&#45;&gt;LayoutTable -->
<g id="edge34" class="edge"><title>UnitLayout&#45;&gt;LayoutTable</title>
<path fill="none" stroke="#cf37c7" d="M331.745,-70.8684C351.401,-60.8981 375.789,-48.5275 395.817,-38.3683"/>
<ellipse fill="none" stroke="#cf37c7" cx="328.161" cy="-72.6864" rx="4.00002" ry="4.00002"/>
<polygon fill="#cf37c7" stroke="#cf37c7" points="396.05,-38.2501 407.004,-37.7395 400.509,-35.9882 404.968,-33.7263 404.968,-33.7263 404.968,-33.7263 400.509,-35.9882 402.932,-29.7131 396.05,-38.2501 396.05,-38.2501"/>
</g>
<!-- User&#45;&gt;CourseSessionEnrollment -->
<g id="edge36" class="edge"><title>User&#45;&gt;CourseSessionEnrollment</title>
<path fill="none" stroke="#9d9211" d="M150.202,-139.143C144.188,-131.757 137.431,-123.459 131.242,-115.859"/>
<ellipse fill="none" stroke="#9d9211" cx="152.824" cy="-142.363" rx="4.00002" ry="4.00002"/>
<polygon fill="#9d9211" stroke="#9d9211" points="131.126,-115.716 128.301,-105.12 127.969,-111.839 124.812,-107.962 124.812,-107.962 124.812,-107.962 127.969,-111.839 121.322,-110.803 131.126,-115.716 131.126,-115.716"/>
</g>
<!-- User&#45;&gt;User -->
<g id="edge38" class="edge"><title>User&#45;&gt;User</title>
<path fill="none" stroke="#e89b46" d="M199.416,-175.433C208.233,-174.843 215,-170.365 215,-162 215,-153.635 208.233,-149.157 199.416,-148.567"/>
<polygon fill="#e89b46" stroke="#e89b46" points="199.23,-175.417 189.659,-170.065 194.249,-174.982 189.268,-174.547 189.268,-174.547 189.268,-174.547 194.249,-174.982 188.877,-179.03 199.23,-175.417 199.23,-175.417"/>
<polygon fill="#e89b46" stroke="#e89b46" points="199.23,-148.583 188.877,-144.97 194.249,-149.018 189.268,-149.453 189.268,-149.453 189.268,-149.453 194.249,-149.018 189.659,-153.935 199.23,-148.583 199.23,-148.583"/>
</g>
<!-- UserBadgeXref -->
<g id="node23" class="node"><title>UserBadgeXref</title>
<ellipse fill="none" stroke="black" cx="1304" cy="-331" rx="71.449" ry="18"/>
<text text-anchor="middle" x="1304" y="-325.4" font-family="Times,serif" font-size="14.00">UserBadgeXref</text>
</g>
<!-- Word -->
<g id="node24" class="node"><title>Word</title>
<ellipse fill="none" stroke="black" cx="1426" cy="-331" rx="31.8859" ry="18"/>
<text text-anchor="middle" x="1426" y="-325.4" font-family="Times,serif" font-size="14.00">Word</text>
</g>
</g>
</svg>
